<?xml version="1.0" encoding="utf-8"?>
<!-- Generator: Adobe Illustrator 19.0.1, SVG Export Plug-In . SVG Version: 6.00 Build 0)  -->
<svg version="1.1" id="Layer_1" xmlns="http://www.w3.org/2000/svg" xmlns:xlink="http://www.w3.org/1999/xlink" x="0px" y="0px"
	 viewBox="-270.7 -91.5 852.7 283.5" style="enable-background:new -270.7 -91.5 852.7 283.5;" xml:space="preserve">
<style type="text/css">
	.st0{fill:#0F0E9A;}
</style>
<g>
	<g>
		<g>
			<path class="st0" d="M181,185c2.2,0,6-0.7,9-5.5c-1.7-3.8-2.9-11.4-3.1-14.2c-0.9-14.3,4.6-27.7,10.6-28
				c4.4-0.3,7.9,3.9,8.3,10.7c1.1,17.8-4.8,25.2-7.8,31.6c0.5,2.5,4.7,6.7,8.7,6.7c1.5,0,3.2-0.7,3.7-1.3c-0.3-1-0.6-2.3-0.6-4.3
				c0-10.3,6.6-19,12.4-19c4.6,0,7.2,6,7.2,10c0,4.7-4,8.5-9.8,12.2c1,1,2.9,1.8,4.6,1.8c8.4,0,12.8-10.1,16-19.4
				c0.6-1.8,1.6-4.3,3.7-4.3c3.5,0,5,23.2,10.9,23.2c2.5,0,4.6-5.1,4.6-9.1c0-2.9-1-3.2-1-7.5c0-4.7,2.5-8.7,5.9-8.7
				c2.1,0,2.8,2,2.8,4.5c0,9.4-6.8,26.9-16.8,26.9c-7.5,0-6.9-12.9-9.6-12.9c-3,0-7.1,13.1-21.6,13.1c-2.4,0-4.9-1.2-6.9-3.5
				c-3.5,2.4-6.5,3.4-9.9,3.4c-5.4,0-7.8-5.6-10-5.6c-2.6,0-5.6,5.7-14.4,5.7c-7.1,0-8.2-9.4-10.7-9.4c-2.2,0-5.6,9.4-9.3,9.4
				c-6.2,0-7.5-16.3-12.9-16.3c-4.3,0-17.7,16.6-21.4,16.2c-1.5-0.2-2.1-1.3-1.9-2.7c0.2-2,2-7.5,2.7-10.1c1.2-4.5,2.3-9.4,2.9-10.9
				c0.6-1.6,2.2-2.7,3.5-2.6c0.7,0.1,0.9,1.3,1.1,2.3c0.7,3.6,1.8,7.3,2.9,7.3c2.1,0,8.9-13.1,12.9-13.1c4.9,0,5.4,20.6,12.1,20.6
				c2.2,0,3.8-2.6,5.3-5.9c0.1-5.4,1.6-13.2,6-13.2c3.1,0,4.6,6.9,2.3,12.9C173.2,183.2,177.9,185,181,185z M298.6,167.3
				c-1.8,7.6-7.3,18.7-15.6,18.7c-1.9,0-5.3-0.7-5.3-2.7c0-2.1,12.9-2.3,12.9-12.2c0-3.7-3.4-8.8-8.4-8.8c-6.6,0-13.1,7.2-13.1,17.2
				c0,9,5.6,11.9,11.1,11.9c9.7,0,15.6-7.9,18.7-14.6c1.5,4.4,2.3,14.6,6,14.6c1.5,0,2.5-0.7,4.3-4.7c4.4-9.9,8.7-21.2,14.6-21.2
				c2.2,0,0.9,4,6.2,4c2.5,0,4.3-2.1,4.3-4.4c0-3.4-3.1-6-7.8-6c-13.8,0-16.8,20.7-19,20.7c-3.7,0-2.5-16.6-5.1-16.6
				C300,163.2,298.9,166,298.6,167.3z M201,151.9c-0.3-4.1-1.2-6-3.5-5.8c-2.9,0.2-4.3,9.4-3.7,19.1c0.4,6.3,1.3,7.3,2.2,7.2
				C197.7,172.3,201.6,161,201,151.9z M177.1,143.2c-0.2-2.4-2.1-4-4.6-4c-2.8,0-5.4,2.9-5.1,6.6c0.2,2.4,1.6,4.4,4.4,4.4
				C175.1,150.3,177.4,146.6,177.1,143.2z M222.9,173.2c0-2.5-1.3-4.6-2.9-4.6c-1.3,0-4.4,1.5-4.4,6.2c0,3.7,1.3,5.4,1.9,6.2
				C221.7,179.7,222.9,176.2,222.9,173.2z M280.3,168.2c3.1,0,4,3.7,3.2,5.9c-0.7,2.2-3.4,4.7-7.5,5.4
				C275.2,177.3,274.7,168.2,280.3,168.2z M111,157.8c-0.4-1.3-1.6-4.3-2-6.6c-0.7-4.9,1.8-8.1,4.2-8.9c2.6-0.7,3.7,0.6,4.7,3.7
				c1.3,4.7,1.5,10.9,1,19.7c-0.6,12.1-6.6,26.6-21.6,26.3c-12.9-0.3-18.7-8.7-19.3-21.5c-0.3-6,0.1-12.1,2.6-20.6
				c1.3-4.6,2.5-6.2,6.6-7.1c3.2-0.6,2.9,2.8,2.2,6.8c-1.6,8.8-2.4,13.1-1.8,23.1c0.6,10.6,5.4,14.7,10.7,14.7
				c7.9,0.2,11.5-6.5,12.9-16C112.7,163.8,111.8,160.1,111,157.8z"/>
		</g>
	</g>
	<g>
		<path class="st0" d="M284.4-33.5c1,7.4,12.2,17.4,15.3,17.2c2-0.2,2.8-9.7,2.8-17.2c0-4.3,0.2-7.6-2-8.4
			C296.9-34.6,287.5-33.2,284.4-33.5z M285.1-36.7c8.1,0,15.5-6.5,15.5-12.2c0-2.7-1.3-4.8-4.5-5.2c0.5,0.7,0.8,1.2,0.8,2.5
			c0,4.3-6.5,9.1-13.6,9.1c-2.6,0-3.4,1.8-3.4,2.7C279.9-37.7,282-36.7,285.1-36.7z M283.4-45.6c-1.1,0-2.7,0-3.5-1.7
			c-0.7-1.4-0.5-3.7-1.8-4.7c1.3,0.4,2.7,0.4,3.8,0.4c3.5,0,6.9-2.4,9.5-2.4c1.7,0,2.2,1.1,2.2,2.2
			C293.6-48.4,286.6-45.6,283.4-45.6z"/>
		<path class="st0" d="M108.9,15.6c2.6,0,2.1-16.2,6.4-16.2c1,0,1.3,1,1.3,2.3c0,3.7-1.8,9.1-1.8,12c0,1.5,0.4,2,1.1,2
			c1.9,0,5.1-17.9,8.3-17.9c1,0,1.5,1,1.5,2c0,3.7-4.8,14.5-4.8,17.5c0,0.5,0.2,0.9,0.5,0.9c2,0,5.9-8.4,7.1-12.6
			c0.7-2.2,1.6-3.4,2.5-3.4c0.8,0,1.5,0.9,1.5,2.7c0,4.2-3.9,14.1-7.3,20.8c-2.6,5-6.7,12.4-6.7,16.6c0,2.1,0.4,4.3,3.4,6.9
			c-5-0.3-7-0.8-8.9-4.7c-8.3,16.6,15.4,15,7.3,29.7c-1.5-2.6-13.2-5.4-13.2-20.8c0-13.3,11.7-21.1,11.7-26.7c0-1.1-0.4-2-1.4-2.9
			c-2.6-2.2-2.7-4-4.7-4c-1.5,0-3.3,3.4-1.4,6.5c0.6,1,1.2,1.6,1.2,2.6c0,2.2-3.4,8-5.8,8c-2.4,0-4.3-6-4.3-15.7
			c0-8.6,1.9-17.2,4.4-17.2c0.7,0,0.9,0.5,0.9,1.1c0,1-0.3,3-0.3,6.5C107.3,15.3,108.1,15.6,108.9,15.6z"/>
		<path class="st0" d="M128.7,38.5c3.3,0,6-2.4,6-7.8v-8c0-3,0.2-6.5,2.3-8.9c-0.2,1-0.2,2.1-0.2,3.1c0,6.7,3.7,11.3,3.7,17.8
			c0,2.4-0.7,3.7-2.6,3.7c-1.8,0-1.6-1.6-2-1.6c-0.3,0-0.8,1-0.8,2.1c0,1.6,1.2,4.2,4.4,4.2c2.8,0,5.1-2.6,5.1-5.5
			c0-7-5.5-14.8-5.5-22.3c0-3.3,0.9-5.5,1.6-7.2c0,15.5,13.2,26.8,13.2,33.3c0,1.5-1.1,2.7-2.7,2.7c-1.8,0-2.7-1.4-2.7-2.5
			c0-0.5-0.1-0.7-0.3-0.7c-0.5,0-1.9,1.6-1.9,3.6c0,2.6,2.1,5.7,6,5.7c4.4,0,6.9-3.7,6.9-7.1c0-8.2-16-20.6-16-33.9
			c0-2.3,0.4-5.9,2-8.7c-10.3,6.6-13.5,15.4-13.5,23.2c0,6.7-0.2,10.1-3.7,10.1c-1.8,0-2.3-1.6-2.9-1.6c-0.5,0-0.7,1.4-0.7,1.8
			C124.5,36.8,126.6,38.5,128.7,38.5z"/>
		<path class="st0" d="M263.9-39.5c3.4,0,6-1.6,6-2.5c0-0.3-0.5-0.5-1.5-0.5s-3-0.1-6.9-0.7c-3.3-0.5-5.8-1.8-6.7-1.8
			c-0.3,0-0.5,0.2-0.5,0.4C254.4-42.6,258.2-39.5,263.9-39.5z M246.9-49.4c1-0.7,5.4,0.4,11.1-2.4c0.7-0.4,1.4-0.5,2-0.5
			c2.7,0,2,3.1,4.5,3.1c1.9,0,4.4-1.6,5.9-1.6c2.3,0,5.7,7.3,5.7,10.8c0,4-6,6.4-13.1,6.4c-10.4,0-16.6-9-16.6-14.9
			C246.5-49.1,246.7-49.2,246.9-49.4z"/>
		<path class="st0" d="M130.4,67.9c-2.6,0.6-6.7,4.7-6.7,11.1c0,7.6,8.2,19.4,21.7,19.4c11.4,0,14.2-7.9,14.2-13.2
			c0-11.8-7.2-20.1-16.7-20.1c-5.1,0-9.8,3.7-9.8,9.3c0,5.2,3.9,12.9,13.2,12.9c4.4,0,6.9-3.1,6.9-6.7c0-3.5-3.2-8.3-7.9-8.3
			c-1.4,0-2.4,0.9-2.4,2.4c0,1.9,2.6,3.7,5.8,3.7c0.8,0,1.4-0.2,1.7-0.3c0.2,0.2,0.2,0.6,0.2,0.9c0,1.8-1.7,2.9-4.4,2.9
			c-4,0-7.8-3-7.8-7.7c0-2.8,2.4-4.8,5.9-4.8c6.9,0,11.1,6.2,11.1,12.3c0,5.5-3,8.7-9.3,8.7C133.7,90.5,127.7,79.3,130.4,67.9z"/>
		<path class="st0" d="M213.4,98c0,1.7,1.4,3.1,3.1,3.1c1.7,0,3.1-1.4,3.1-3.1s-1.4-3.1-3.1-3.1C214.8,94.9,213.4,96.3,213.4,98z
			 M219.4,113.6c3.7,0,3.5-0.3,4.7-0.3s1.2,0.7,1.2,1.2c0,1.7-3.8,3.8-10.6,3.8c-4,0-6.4-2.1-7.1-4.5c-3.9,2.5-9.8,4.8-15.7,4.8
			c-16,0-20-6.9-25-9.2c-3.8-1.7-9.7,1.6-17.9-7.5c1.1,0.2,2.6,0.3,3.7,0.3c7.2,0,11-3.5,11-9.1c0-0.7-0.1-1.5-0.2-2.2
			c2.2,0.9,7.2,4.6,8.4,11.2c0.2,0.8,3.4,1.5,5.4,1.5c2.8,0,6.4-1.2,6.9-5.8c9.4-0.8,15.7-6.3,17-13.3c3.3,1.1,7.2,4.1,8.1,5.7
			c1.3-0.5,2.9-0.7,4.7-0.7c2.5,0,5.3,0.5,8.7,1.5c0.2-1,0.3-2.3,1.9-2.3c2.3,0,1.7,2.6,2.5,4.1c0.4,0.8,2.3,1.2,2.3,2.8
			c0,1.5-1.3,2-2,2c-0.3,0-0.7-0.1-0.9-0.2c-1.6,0.5-1.6,11.8-8.2,11.8c-4.8,0-9.3-4-11.2-9c-0.5-1.5-1.7-2.4-2.8-2.4
			c-1.2,0-1.9,0.2-3.4,1.9c-4.2,4.6-11.2,8.6-19.9,8.6c-2.7,0-4.8-0.2-5.3-0.2c-0.3,0-0.3,0.1-0.3,0.2c0,0.5,2.7,2.7,8.4,2.7
			c13.7,0,17.1-7.7,19.3-7.7c0.3,0,1.2,0,1.8,1.2C208.1,111.9,215.1,113.6,219.4,113.6z"/>
		<path class="st0" d="M266.7,63.9c-1.6,0-10.7,12.1-16.5,12.1c-1.4,0-2.6-2.7-2.6-4.7c0-1.1,0.7-1.9,3.2-2.4
			c13.4-3,10.4-13.1,21.9-13.1c6.3,0,13.3,4.3,13.3,14c0,10.3-14.7,23.1-16.8,23.1c-1.8,0-3.7-2.6-3.7-4.3c0-0.5,0.2-1.2,1.8-1.9
			c7.5-3,11.8-9.8,11.8-13.3c0-0.8-0.4-1.6-1.4-1.6c-1.3,0-7,12.9-13.3,12.9c-4.4,0-8.8-4-8.8-5.8c0-3.1,12.6-8.9,12.6-13.3
			C268.1,64,267.4,63.9,266.7,63.9z M275.2,59.1c-1.1,0-2.3,0.9-2.3,3c0,2.3,1.8,3.8,2.8,4.3c0.5,0.3,1.4,0.6,2.3,0.6
			c2.3,0,4.1-0.6,4.1-2.5C282,62,278.5,59.1,275.2,59.1z"/>
		<path class="st0" d="M129.4-31.3c0,1.7,1.4,3.1,3.1,3.1c1.7,0,3.1-1.4,3.1-3.1s-1.4-3.1-3.1-3.1C130.9-34.4,129.4-33,129.4-31.3z
			 M125.4-38.3c0,1.7,1.4,3.1,3.1,3.1c1.7,0,3.1-1.4,3.1-3.1s-1.4-3.1-3.1-3.1C126.8-41.4,125.4-40,125.4-38.3z M122.6-16.9
			c-1.8,0.5-5.5,2.7-5.5,6.6c0,2.8,2.2,4.6,4.9,4.6c1.4,0,2.4-0.3,3-0.8c-2.2-2.1-3-4.4-3-6.8C122-15,122.3-16,122.6-16.9z
			 M103.5-15.8c-0.1,0.4-0.1,0.8-0.1,1.2c0,3.7,1.9,5.7,4.5,5.7c1.9,0,4.2-1.2,6.2-3.7c-0.9,0.2-1.9,0.2-2.8,0.2
			C108.5-12.5,105.3-13.3,103.5-15.8z M100.7-8.9c0,5.9,1.8,8.7,5,8.7c2.5,0,5.8-1.8,9.8-5.2c-3,0.7-5.4,1.2-7.5,1.2
			C105.3-4.2,103.1-5.3,100.7-8.9z M120.9-40.1c0.4-1.2,0.7-2.8,0.7-4.5c0-3.7-1.7-9.4-7-9.4c-3,0-5.2,2.4-5.2,5.3
			C109.4-42.6,115.6-40.1,120.9-40.1z M114.3-20.4c-2.6,0-5.4-3.2-5.4-6.1c0-1.6,1.2-3.5,2-3.5c0.3,0,0.5,0.2,0.5,0.8
			c0.5,3.8,3,6,5.3,7.1c0.2,0.2,0.4,0.2,0.4,0.4C117.2-21.2,115.7-20.4,114.3-20.4z M121.5-30c0.5,0.7,2,1.6,2,2.2
			c0,1.1-0.6,2.5-1.9,2.5c-2.7,0-4.9-4.1-4.9-6.5c0-1.5,0.9-1.6,2-1.6c0.5,0,0.8,0.1,1.2,0.3C120.6-32.7,120.6-31.1,121.5-30z
			 M103.2-20.3c-0.1,0.2-0.2,0.5-0.2,0.9c0,0.7,0.8,1.5,1.5,1.5c0.6,0,1-0.2,1.3-0.2c1.9,0,4,1.3,7,1.3c1.8,0,3.9-0.5,6.6-1.9
			c5.6-2.8,7.8-9.8,7.8-10.9c0-1.5-1.2-1.3-2.2-2.7c-1-1.4-0.6-2.6-1.2-3.2c-0.4-0.4-1.5-0.4-2.9-0.5c-0.5-0.1-1.1-0.1-1.7-0.1
			c-2.6,0-5.6,0.3-9,2.5C103.3-29.2,104.2-22.1,103.2-20.3z M129.1-23.4c-1.7,2-3.5,5.5-3.5,9c0,4.2,2.6,7.7,6.6,7.7
			c3.8,0,5.6-3.3,5.6-6.6C137.7-18.6,133-22.2,129.1-23.4z M112.4-38.4c0,0-2.3,1.7-5.1,1.7c-3.4,0-6-2.5-6-6c0-2.4,1.2-4.9,4.1-6.2
			c-0.1,0.5-0.1,0.9-0.1,1.3C105.3-43.1,107.8-39.7,112.4-38.4z"/>
		<path class="st0" d="M249.9-12.5c0,1.8,1.5,3.3,3.3,3.3s3.3-1.5,3.3-3.3s-1.5-3.3-3.3-3.3S249.9-14.3,249.9-12.5z M250.1-2.7
			c0,2,1.6,3.7,3.7,3.7c2,0,3.7-1.6,3.7-3.7c0-2-1.6-3.7-3.7-3.7C251.8-6.3,250.1-4.7,250.1-2.7z M238.9,4c0,3,2.4,5.4,5.4,5.4
			s5.4-2.4,5.4-5.4s-2.4-5.4-5.4-5.4C241.3-1.4,238.9,1,238.9,4z M241.8-7c0,1.7,1.4,3.1,3.1,3.1S248-5.3,248-7
			c0-1.7-1.4-3.1-3.1-3.1C243.2-10.1,241.8-8.7,241.8-7z M231.6-0.8c0,1.7,1.4,3.1,3.1,3.1s3.1-1.4,3.1-3.1c0-1.7-1.4-3.1-3.1-3.1
			S231.6-2.5,231.6-0.8z M239.6-19c0,2.7,2.3,5,5,5s5-2.3,5-5s-2.3-5-5-5S239.6-21.8,239.6-19z M245.4-28.6c0,1.6,1.3,3,3,3
			c1.6,0,3-1.3,3-3c0-1.6-1.3-3-3-3C246.8-31.6,245.4-30.3,245.4-28.6z M231.3-21.1c0,1.6,1.3,3,2.9,3s3-1.3,3-3c0-1.6-1.3-3-3-3
			C232.7-24.1,231.3-22.8,231.3-21.1z M230.9-11c0,2.7,2.1,4.8,4.7,4.8c2.7,0,4.8-2.1,4.8-4.8s-2.1-4.8-4.8-4.8
			C233-15.8,230.9-13.7,230.9-11z M221.1-6c0,2.4,2,4.4,4.4,4.4s4.4-2,4.4-4.4s-2-4.4-4.4-4.4C223.1-10.5,221.1-8.4,221.1-6z
			 M223.8-17c0,1.7,1.4,3.1,3.1,3.1s3.1-1.4,3.1-3.1c0-1.7-1.4-3.1-3.1-3.1C225.2-20.1,223.8-18.7,223.8-17z M251.1,7
			c0-1.6,1.4-2.9,2.9-2.9c1.7,0,3,1.3,3,2.9c0,1.8-1.3,3-3,3C252.6,10.1,251.1,8.8,251.1,7z"/>
		<path class="st0" d="M253.2,96.7c0.4,0,0.9,0.2,0.9,1.6c0,1.7-0.8,4-3.6,5.8c-2,1.3-4.6,2.4-8.5,2.5c0.6-1.9,1.1-3.8,1.1-5.7
			c0-0.6-0.1-1.1-0.2-1.8h1C250.1,99.2,252.7,96.7,253.2,96.7z M253.8,89c0.6-0.5,0.8-1.4,0.8-2.3v-1.8c0-2.3-3.4-3.6-8.1-3.6
			c-5.7,0-8.7,2.6-8.7,3.7v3.6c0,1.5,3.4,3,7.7,3C248.7,91.6,251.8,90.7,253.8,89z M257.8,89.9c-2,1.6-6.8,5.1-14.7,5.1
			c-4.2,0-6.1-1.3-6.7-1.3c-0.8,0-1.6,0.8-2.5,1.8c-1.9,2.2-4.3,6.2-4.3,10.7c0,3.1,2.4,6.2,6.9,6.2c14.6,0,25.5-9.1,25.5-16.5
			C262.1,91.6,259.6,89.9,257.8,89.9z"/>
		<path class="st0" d="M260.6,24.3c0,1.9,0.6,4.2,2.6,4.2c1.6,0,3-2.5,3-5.2c0-3.1-0.5-5.5-0.5-6.8c0-0.5,0.2-0.8,0.5-0.8
			c1.2,0.1,2.3,3.3,3.5,3.3c1.4,0,3.5-2.6,4.4-2.6c0.2,0,0.3,0.3,0.3,0.4c0,1.2-1.8,3.8-1.8,4.8c0,0.9,4.5,1,4.5,1.8
			c0,1.2-4.7,1.2-7,2.2c-2.2,0.9-3.5,2.1-3.5,3.7c0,1.6,1.6,1.9,3.8,1.9c5.2,0,8.9-2.8,10-2.8c0.2,0,0.4,0.2,0.4,0.4
			c0,0.8-2.7,3.4-2.7,4.5c0,1.3,4.8,2.9,4.8,3.7c-0.1,0.2-0.4,0.3-0.9,0.3c-0.9,0-2.2-0.2-3.2-0.2c-0.6,0-1.2,0.1-1.4,0.4
			c-0.5,0.6,0.2,4.8-0.9,4.8c-1,0-3.7-9.2-9.7-9.2c-0.9,0-1.5,0.7-1.5,1.9c0,3.1,3,6.7,5.9,8.4c1.3,0.9,3.5,1.7,3.5,2.2
			c0,0.9-5,0.1-5,1.6c0,1.4,0.6,3.5,0.6,4.8c0,0.4-0.1,0.9-0.5,0.9c-0.9,0-3.2-4.3-4.3-4.3c-0.9,0-3,2.6-3.8,2.6
			c-0.2,0-0.4-0.2-0.4-0.5c0-1.8,2.9-5.9,2.9-9.8c0-1.9-0.2-5.9-2.5-5.9c-1.9,0-4,3-4.9,5.9c-0.5,1.7-0.2,8.3-1.4,8.3
			c-1.2,0-0.9-4.4-2.4-4.4c-1.2,0-3.6,2.1-4.5,2.1c-0.2,0-0.3-0.1-0.3-0.2c0-0.9,2.3-4,2.3-4.6c0-1.2-5.2-1.3-5.2-2.3
			c0-0.5,2-0.9,3.9-1.2c4-0.7,9.8-3.6,9.8-7.6c0-4.5-4.4-6.5-7.2-8.3c-1.5-0.9-3.1-1.7-3.1-2.3c0-0.6,1.9-0.6,2.7-0.6
			c1.2,0,2.3-0.1,2.3-1c0-0.7-0.2-2.1-0.2-3.2c0-0.8,0.1-1.4,0.4-1.4c1.2,0,2.8,3.8,3.6,3.8c1.2,0,3-3.1,4.1-3.1
			c0.4,0,0.5,0.2,0.5,0.9C262.1,18.2,260.6,21.4,260.6,24.3z M223.4,1.4c0.9,6.6,9.8,3.3,9.8,11.3c0,1.2-0.3,2.9-0.3,4.4
			c0,1.7,0.2,3.2,1.5,3.2s1.6-0.9,1.6-2.2c0-1.2-0.3-2.8-0.3-3.7c0-2.7,2-3.4,3.1-3.4c3,0,5.2,3,9.7,3c-1,5-11.3,3.7-11.3,9.1
			c0,2.7,2.7,3.4,4.5,3.4c1.6,0,2.2-0.2,2.2-1.6c0-0.8-0.2-1.6-0.2-2.2c0-0.3,0.2-0.6,0.6-0.6c1.7,0,10.1,6.4,10.1,8.4
			c0,1.8-8.9,3.6-11.5,3.6c-0.8,0-0.9-0.5-0.9-0.9c0-0.5,1.3-2.2,1.3-3.1c0-0.7-1.2-1.2-4.3-1.2c-1.5,0-2.6,0.2-2.6,1.3
			c0,2.1,3.4,4.7,3.4,6.6c0,1.6-0.9,2.5-3.4,2.5c-2.1,0-5.3-1.6-5.3-4.4c0-2.2,2.2-4.4,2.2-5.7c0-0.4-0.3-1-1.2-1
			c-2.9,0-3.7,7.6-13.9,8.5c1.6-1.5,3-3.1,3-6.5c0-1.6-0.4-3-0.4-4.8c0-2.3,1.1-3.5,2.7-3.5c2.9,0,4.3,4.1,6.2,4.1
			c1,0,2.1-0.9,2.1-2.3c0-5.9-11.4-5.1-11.4-13.4C220.5,8.1,221.3,5.3,223.4,1.4z"/>
		<path class="st0" d="M238.2,52.1c0,1.1,0.8,1.9,1.9,1.9c1.2,0,2-1.1,2-2.3c0-1.6-1.5-3.9-2.9-3.9c-0.6,0-0.4,0.9-0.5,2
			C238.6,50.5,238.2,51.5,238.2,52.1z M234.1,41.7c8.2,1.6,12.6,7.7,12.6,13.5c0,4-2.5,7.6-6.9,7.6c-4,0-6.9-2.7-6.9-7.1
			c0-3.3,2.6-6.7,2.6-10.1C235.6,44.4,235.2,43.1,234.1,41.7z M223.8,55c0.8,0.8,1,1.6,1,2.3c0,1.2-0.5,2.4-0.5,3.7
			c0,1.9,1.4,3.5,3.4,3.5c2.2,0,3.7-1.7,3.7-3.7C231.3,57.9,228.3,55,223.8,55z M249.6,50c0.5,0.9,0.8,1.7,0.8,2.5
			c0,2.2-1.5,4.2-1.5,6.5c0,2.6,2,4.7,4.9,4.7c3.2,0,5.4-2.6,5.4-5.6C259.2,53.9,255.4,50.4,249.6,50z M225.6,45.9
			c3.6,0.5,4.5,1.7,4.5,2.7c0,1.7-1.6,2.3-3.1,2.3c-1.1,0-2.3-0.2-3.7-0.2c-1.7,0-3.4,0.4-4.8,2c1,0.2,2.5,0.9,2.5,2.4
			c0,4.5-12.6,0.8-12.6,12.4c0,6.2,6.4,12.9,16.1,12.9c5,0,8.2-1.6,8.2-3.5c0-1.5-2.7-0.5-2.7-1.7c0-0.5,0.9-1.6,0.9-2.4
			c0-0.4-0.3-1.1-0.9-1.1c-1.4,0-4.1,2.3-9.4,2.3c-4.2,0-8.3-2.4-8.3-5.7c0-0.7,0.3-1.1,0.8-1.1s1.1,0.3,1.6,0.3s0.5-0.3,0.5-1.2
			s0-3.3,1.5-3.3s4.3,5.5,15.1,5.5c3.6,0,10.5-0.7,13.1-3c-0.1,8.6-6.8,19.9-20.8,19.9c-14.6,0-22.4-11.7-22.4-22.5
			c0-11.9,9.7-22.8,23.1-22.8c3.4,0,6.3,1.2,6.3,2.6C231.1,44.7,226,43.4,225.6,45.9z"/>
		<path class="st0" d="M175.2-43.2c5.1,0,7.5,4.4,7.5,9.4c0,2.2-0.6,5.4-1.6,5.4s-0.9-1.8-1-3.4c-0.2-2.1-0.5-2.6-1.2-2.6
			c-1.3,0-2.2,3.1-2.2,6c0,1.8,0.3,3.8,1.7,3.8c0.8,0,1.5-0.4,2-0.9c-0.3,3.6-3,6.7-6.7,6.7c-6.9,0-9.4-8-10.2-12.7
			c-4.1,4.4-8,7.6-14.8,7.6c-6.4,0-9.3-4.7-9.3-9.1c0-1.3,0.5-4.8,2.1-4.8c1.9,0,0.2,6.4,4.1,6.4c0.9,0,2.7-0.8,3.6-3.4
			c0.5-1.6,0.9-3.2,0.9-4.6c0-2.1-0.5-3.4-2-3.4c-1.3,0-3,1-3.5,1.6c1.9-5.6,6.4-8.5,11.4-8.5c6.2,0,9.4,5.5,9.4,11.5
			c0,0.9-0.1,1.8-0.2,2.7C167.5-39.9,171.2-43.2,175.2-43.2z M169.2-34c0-1.3-0.3-1.6-0.6-1.6c-0.8,0-1.6,0.9-2.9,3
			c0.2,2.8,0.6,4.1,1.4,4.1C167.9-28.6,169.2-31.3,169.2-34z M158.5-30.8c0.9,0,2-0.9,4-3.2c0.2-1,0.2-2,0.2-3.1
			c0-1.6-0.6-3.3-1.6-3.3c-2.3,0-3.5,6.2-3.5,7.9C157.5-31.6,158-30.8,158.5-30.8z M171.2-23.9c1.9,0,4.1-7.5,4.1-12.2
			c0-1-0.2-2.1-0.6-2.1c-1.6,0-4.4,7.7-4.4,11.9C170.3-24.6,170.7-23.9,171.2-23.9z M152.1-28.2c2.7,0,5.7-14.4,5.7-16.8
			c0-0.6-0.2-1.1-0.8-1.1c-2.4,0-5.8,13.7-5.8,16.7C151.2-28.8,151.4-28.2,152.1-28.2z"/>
		<path class="st0" d="M160.6-22.2c-3.4,0-3.5,4.1-3.5,12.2c-2.5-5.4-6.6-11.2-11.5-11.2c-3.3,0-4.5,2.2-4.5,6c0,0.8,0.1,2,0.2,2.7
			c0.4-1.3,1.6-1.9,3.2-1.9c3.4,0,7.4,2.6,10.1,6.1c-3-0.5-6-1.1-8.5-1.1c-1.6,0-3,0.2-4.1,0.7c-2.3,1-5.3,4.4-5.3,9.4
			c0,0.8,0.1,1.6,0.2,2.6c2.7-6.1,10-8.8,14.7-8.8c0.9,0,1.6,0.1,2.2,0.2c-2.4,2.2-3,6-3.1,8.6c-0.1,1.2-0.5,1.3-1.4,1.3
			c0,2.6,2,6.4,2,8.3c0,0.7-0.4,1.3-0.8,1.5c0,3.4,3.4,5.9,3.4,8.1c0,0.5-0.2,1-0.4,1.2c0.2,1.4,4,3.8,4.5,4.9
			c0.6,1.4,1.3,1.7,1.7,1.7c1.3,0,3.4-1.6,3.4-3c0-0.5-0.4-1-0.7-1.2c-1.5-1.1-2.3-3.4-2.9-5c-0.5,0-1.3-0.2-1.5-1.1
			c-0.4-1.6-0.4-4.6-1.1-6.4c-1-0.2-1.5-0.6-1.5-2.7c0-1,0.6-5,0.6-6.4c-0.5,0-1.1-0.3-1.1-1.2c0-2.5,2.5-4.4,3.2-7.6
			c4.4,3.3,5.5,6.6,5.5,9.6c0,1.6-0.2,3-0.5,4.4c3.3-1.6,8.2-4.1,8.2-9c0-2.9-1.3-6.1-10.1-7.3c2.7-1,6.2-1.6,9-1.6
			c5,0,7.9,1.6,8.5,5.1c1-1.6,1.8-3.4,1.8-5c0-3.8-3.2-6.3-7.3-6.3c-4.8,0-9,2.5-13.5,5.5c2-4.2,3.4-6.7,5.9-6.7
			c0.4,0,0.8,0.1,1.2,0.2C166-18.9,162.4-22.2,160.6-22.2z"/>
		<path class="st0" d="M292,34c3.9,0,7,5.1,7,11c0,6.3-3,13.2-8.3,17.9c-0.1-10.5-13-7.2-13-14.8c0-3.3,2.3-5.5,5.2-5.5
			c2.5,0,4.4,0.7,5.9,2.1c-1.4-1.3-2.1-3.2-2.1-5C286.7,36.7,288.6,34,292,34z"/>
		<path class="st0" d="M234.1-45.8c-0.6-1-3-1.6-4-1.6c-3.4,0-5.8,2.4-6.2,4.6c-0.3-0.8-0.5-1.7-0.5-2.7c0-3.4,2.3-7.6,8-7.6
			c5,0,6.9,2.6,7.6,2.6c0.8,0,1.6-0.8,2.2-0.8c0.9,0,0.9,1.3,0.9,2.3c0,3.1-1.4,8.5-4.9,10.5c-0.6-1.3-1.9-2.8-3.9-3.7
			c-0.5-0.2-0.8-0.7-0.8-1.2C232.4-44.2,233.2-45.3,234.1-45.8z M222.4-40.1c2,2,3.8,2.8,6,2.8c0.9,0,1.9-0.2,2.4-0.2
			c0.7,0,1.2,0.3,1.2,0.9c0,0.9-0.8,2.3-1.7,3c0.9,0.4,2,0.5,3,0.5c4.4,0,9.5-2.8,9.5-9.8c0.9,1.2,1.5,3.8,1.5,5
			c0,8.5-6.2,11.8-12,11.8c-3.8,0-5.6-1.2-6.1-1.2c-1.5,0-1.4,3-2.4,2.9c-1.8-0.3-3.4-4.3-3.4-8.5C220.3-35.5,221-38.1,222.4-40.1z"
			/>
		<path class="st0" d="M155.6-89.7c0-0.5-2.3-0.9-5.5-0.9c-5.1,0-4.4,4.2-8.3,4.2c-4.1,0-3-4.4-8.2-4.4c-3.1,0-6,0.5-6,1.2
			c0,0.9,3.7,0.5,3.7,3.1c0,2.7-7.9,3.5-7.9,5.1c0,0.5,0.6,0.8,1.4,0.8c1.7,0,4.4-0.8,6.4-0.8c1.1,0,2.1,0.2,2.1,1.2
			c0,2-4.2,5.5-4.2,7c0,0.5,0.4,0.6,0.8,0.6c1.6,0,4.2-4,6.7-4c4.1,0,1.4,8.8,3.7,8.8s1.3-8.7,4.7-8.7c2.7,0,4.8,6,6.6,6
			c0.5,0,0.9-0.4,0.9-0.9c0-1.6-2.3-5-2.3-7.2c0-1.3,0.9-2,2.2-2c1.8,0,4.2,1.1,5.5,1.1c0.5,0,0.9-0.2,0.9-0.7
			c0-1.9-6.9-3.9-6.9-6.3C151.8-88.6,155.6-88.6,155.6-89.7z M173.9-81.8c0,1.4,4.9,4.4,7.2,4.4c1.3,0,1.7-1.8,1.7-3.7
			c0-2.3-1-2.4-3-2.4C177.2-83.4,173.9-82.7,173.9-81.8z M182-66.3c0-4.7-12.7-13.2-12.8-16.8c0-0.3,0.2-0.7,0.5-1
			c2.2-2.3,11.2-4,11.2-5.9c0-1-1.9-1-2.8-1c-7.3,0-17.9,2.7-17.9,5.2c0,2.7,9.5,9.1,9.5,12.3c0,0.9-0.5,1.2-1.4,1.2
			c-2.6,0-8.4-3.2-11.2-3.2c-1.2,0-1.7,0.9-1.7,2.1c0,3.7,4.4,10.8,4.4,12.9c0,0.2-0.1,0.5-0.4,0.5c-1.4,0-8-7.8-10.4-7.8
			c-0.9,0-0.9,1.2-0.9,2.9v2.7c0,1.8-0.1,2.9-0.9,2.9c-2,0-3-5.7-4.9-5.7c-2,0-2.4,10.1-4.4,10.1c-2.3,0-0.3-11.2-2.5-11.2
			c-2.4,0-5.1,7.4-6.9,7.4c-0.6,0-0.8-0.6-0.8-1.2c0-2.3,1.3-5.9,1.3-8.1c0-1.1-0.3-1.7-1.2-1.7c-2.4,0-7.7,3.9-9.8,3.9
			c-0.3,0-0.7-0.2-0.7-0.5c0-1.9,8.5-7.8,8.5-10.5c0-2.6-11.7-0.9-11.7-3.8c0-2.5,8.4-5.1,8.4-7.6c0-2.3-9.9-3.3-13.7-3.3
			c-4.6,0-7.1,0.5-7.1,1.9c0,2,10.5,2.7,10.5,4.4c0,1.7-10.8,6.3-10.8,9c0,2.3,15.3,0.2,15.3,2.6c0,2.7-13.3,14.1-13.3,17.9
			c0,0.9,0.6,1.2,1.5,1.2c4.1,0,14.6-7.7,17.5-7.7c1,0,1.1,1.2,1.1,2.3c0,2-0.7,5.1-0.7,7.4c0,1.8,0.5,3,2,3c2.9,0,5.5-4.9,7.5-4.9
			c2.5,0,1,14.4,4.8,14.4c3.2,0,4.5-15.6,6.5-15.6s3.7,4.5,5.5,4.5c2.3,0,1.2-7.9,3.7-7.9c2.7,0,10.5,9.4,14,9.4
			c1.1,0,1.5-0.9,1.5-2c0-4.1-5.8-13.5-5.8-16.5c0-0.8,0.2-1,1.1-1c3,0,11.9,4.2,16.1,4.2C181.2-64.5,182-65.3,182-66.3z
			 M110.8-70.8c0,1.6-5.9,6.8-8,6.8c-0.8,0-1-0.9-1-1.8c0-1.6,0.7-3.7,1.6-4.4c1-0.9,3.4-1.4,5.1-1.4
			C109.6-71.7,110.8-71.5,110.8-70.8z M168.1-62.8c0,2.7,9.8,16.1,11.6,16.1c1.6,0,2.7-2.7,2.7-5.1c0-0.6-0.2-1.2-0.5-1.7
			c-1.4-2-11.3-9.8-13.5-9.8C168.3-63.3,168.1-63,168.1-62.8z"/>
		<path class="st0" d="M293.4-86.4c0,1.1,0.9,1.9,2,1.9s2-0.9,2-1.9c0-1.1-0.9-2-2-2S293.4-87.5,293.4-86.4z M280.7-69.2
			c0-5.5-13.3-6.9-13.3-8.2c0-1,7.4-2.7,11.2-2.8c-5.9-7.5-14.2-6.7-14.2-8c0-0.8,6.2-2.3,12-2.3c4.8,0,9.4,1.1,9.4,4.8
			c0,2-1.6,4.1-1.6,7.3c0,1.7,0.9,3.2,3.1,3.2c2.4,0,3-2.6,3-5.3c0-2.3-0.4-4-0.4-5.1c0-3.3,2.2-5.5,5.4-5.5c2.7,0,3.3,1.2,7.2,1.2
			c-2.1,1.3-2.9,3.5-2.9,4.6c0,3.3,2.1,5.5,2.1,12.2c0,12.3-11.5,16.7-25.7,16.7c-3.9,0-8-0.3-12.1-0.9c-0.6-0.1-0.8-0.2-0.8-0.6
			c0-1,5.5-1.6,5.5-6.6c0-2-0.6-3.8-0.6-4.5c0-0.4,0.3-0.6,0.6-0.6c1.2,0,3.5,4.5,7.9,4.5C277.8-65.2,280.7-65.6,280.7-69.2z
			 M293.9-77.1c0,6.9-5.1,12.2-14.2,13.7c1,0.1,2,0.1,2.9,0.1c10.7,0,14.6-4.8,14.6-8.9C297.2-74.4,295.9-76.4,293.9-77.1z"/>
		<path class="st0" d="M288.5,23.5c1.2-3.9,2.8-6.6,5.4-10.8c-2.6-1.3-9.4-4.1-9.4-8.7c0-5.4,6.7-9.6,8.1-9.6c0.6,0,0.8,0.5,0.8,1.6
			c0,2.8-1.3,7.3-1.3,9.8c0,2.2,1.4,4.3,2.7,4.3c1.3,0,5-4.7,5-9.3c0-8.3-7.3-10.8-9.5-10.8c-2.1,0-5.9,3.4-14.9,3.4
			c-16.8,0-20.6-16.6-20.6-23.9c0-0.3,0.1-0.4,0.2-0.4c0.4,0,2,2,7.3,2c2.7,0,5.2-0.7,9.2-0.7c9.3,0,13.5,6.5,19.3,14.7
			c3.5,2.2,11.9,5.7,11.9,15.6c0,8.7-9.3,13.6-11.5,22.9c3.6-0.4,5.7-6.8,9.4-6.8c1.9,0,2.7,1.5,2.7,3.8c0,3.4-2,8.6-5.7,11.8
			c0.1-0.3,0.1-0.7,0.1-1.2c0-2.2-0.9-5.3-3.4-5.3c-3.9,0-5.1,4.2-7.3,7.7c-2.3-8-5.3-15.1-10.8-19.5s-15.1-2-15.1-10.1
			c0-2.2,1.4-5.3,1.4-7.8c0-0.9-0.2-1.6-0.6-2.3c7.5,2.8,4.8,7.8,9.5,12.9c2.9,3.3,10.8,6.4,15.4,19.9c0.1-0.4,0.2-1.4,0.2-2.1
			c0-11.5-15.3-22.9-16.6-27.5c8.9,1,10.4,3.2,14.7,14.9C285.7,14.5,288.5,20.5,288.5,23.5z M286.5-14.4c0-1.6-4.1-1.8-4.5-6.4
			c-0.1-0.7-0.3-1.9-1.2-1.9c-1.4,0-0.3,4.3-1.9,4.3c-3.6,0-4.8-7-6.1-7c-0.3,0-0.7,0.2-0.7,1.2c0,0.9,0.2,1.4,0.2,2.4
			s-0.2,1.7-1.2,1.7c-2.1,0-4-4.9-5.8-4.9c-0.4,0-0.8,0.2-0.8,0.6c0,0.9,1.6,2.7,1.6,3.5c0,1.9-5.1,0.9-5.1,2.4
			c0,0.7,0.7,0.9,1.6,0.9c1.6,0,4.2-0.7,5.5-0.7c0.8,0,2,0.2,2,1.2c0,1.1-2.8,2.5-2.8,3.5c0,0.5,0.5,0.7,0.9,0.7
			c2.1,0,5.8-3.7,8.5-3.7c0.5,0,1.6,0.2,1.6,0.9c0,1-2.6,2.8-2.6,4.3c0,0.4,0.2,0.9,0.7,0.9c1.4,0,3.3-3.7,5.9-3.7
			c1,0,2.5,0.4,3.3,0.4C286.2-13.7,286.5-14.1,286.5-14.4z"/>
		<path class="st0" d="M228.4-61.1c1.3,0,1.5,3,1.7,4.8c0.2,0.9,0.3,1,0.7,1c0.9,0,2.4-3.6,3.4-3.6c1.5,0,5.5,4.1,12.1,4.1
			c9.4,0,18.3-6.6,18.3-18.3c0-11.3-8-17.9-19-17.9c-5.2,0-9.1,2.6-11.1,2.6c-1.2,0.1-3.1-3-4-3c-0.4,0-0.8,0.8-0.8,2.1
			c0,0.9,0,3.6-0.9,3.6c-1.9,0-9.1-5.4-9.1-3.4c0,1.8,4.8,7.3,4.8,8.7c0,1.4-4.8,2.7-4.8,3.7c0,1.7,5.1,2,5.1,4.2s-5.3,3.9-5.3,5.5
			c0,1.3,5.3,0.4,5.3,2s-3.9,7.1-3.9,8.7c0,0.4,0.1,0.4,0.4,0.4C222.8-56,227.3-61.1,228.4-61.1z M230.6-73.9c0-0.9-3-2.5-3-3.4
			c0-0.2,0.2-0.2,0.4-0.2c0.9,0,2.3,0.3,3.5,0.3c1,0,1.2-4.4,1.9-4.4c0.5,0,1.5,4.1,2.3,4.1c1,0,2.9-1.2,3.7-1.2
			c0.2,0,0.3,0.1,0.3,0.2c0,0.5-2,2.6-2,3.3c0,0.7,4.4,1.6,4.4,2.2c0,0.8-4.5,0.7-4.5,1.4c0,0.5,1.6,2.7,1.6,3.4
			c0,0.2-0.1,0.2-0.2,0.2c-0.6,0-3-1.1-3.7-1.1c-0.9,0-2.2,3.2-3,3.2c-0.2,0-0.4-0.3-0.4-0.7l-0.2-3.1c0-0.3-0.2-0.6-0.5-0.6
			c-0.9,0-2.7-0.1-3.3-0.1c-0.4,0-0.5-0.1-0.5-0.2C227.5-71.1,230.6-73.3,230.6-73.9z M245.8-59.1c-5.5,0-9.1-2.7-9.1-4.1
			c0-0.7,0.5-1.2,1.1-1.2c1.7,0,5.5,2.6,6.7,2.6c0.3,0,0.5-0.2,0.5-0.6c0-1.4-1.3-3.7-1.3-4.9c0-0.3,0.2-0.5,0.7-0.5
			c2.1,0,5.2,0.9,6.9,0.9c0.5,0,0.7-0.3,0.7-0.6c0-1.7-5.1-5.1-5.1-6.1c0-0.9,6.3-2.3,6.3-3.8c0-1.6-8.6-0.5-8.6-2
			c0-1.1,1.6-3,1.6-3.8c0-0.4-0.3-0.5-0.9-0.5c-0.7,0-4.5,1.5-6,1.5c-0.8,0-1.7-0.2-1.7-1.2c0-1.8,3-3.7,7.8-3.7
			c7.7,0,12.3,5.3,12.3,14.2C257.9-61.9,250.1-59.1,245.8-59.1z"/>
		<path class="st0" d="M193,75.9c0,0.7-0.2,1.5-0.9,2.3c-0.9-1.6-3.3-2.3-4.4-2.3c-8,0-5,11.6-13.6,11.6c-3.6,0-3.9-0.5-5.2-0.5
			c-0.5,0-0.9,0.2-0.9,0.7c0,2,2.9,7,10.9,7s15.8-4.9,15.8-11c0-1-0.2-2.1-0.7-3.2c0.3-0.5,1.1-0.8,1.8-0.8c1.2,0,1.9,1.4,3.1,1.4
			c1.2,0,2.2-0.9,2.2-2.2c0-1-0.5-1.7-1.5-2.2c0.6-0.5,1.1-1.2,1.1-2.1c0-1.3-0.9-2.6-2.5-2.6c-0.7,0-1.2,0.2-1.7,0.8
			c-0.2-1.4-0.9-2.7-2.4-2.7c-1.2,0-2,0.9-2,2.2C192.2,73.6,193,74.6,193,75.9z"/>
		<path class="st0" d="M172,78.9c-2.3,0-5.9-2.5-5.9-3.9c0-1.2,1.1-1.8,1.9-1.8c2,0,5.5,2.4,5.5,4.4C173.6,78.2,173.2,78.9,172,78.9
			z M150.3,61.4c6.2,1.6,9.4,4.9,10,8.9c0.6,3.8,1.4,6.9,2.9,8.5c2,2.2,5.8,4.1,9.1,4.1c2.8,0,5.1-0.9,5.1-3.5
			c0-2.8-3.8-9.1-9.4-9.1c-0.5,0-1.2,0.1-2,0.1c-0.7,0-1.7-0.2-2.3-0.7c-1.2-1.1-1.6-6.9-4-10.5c-2.6-3.9-5.4-5-9.2-5
			c-2.7,0-5.8,1.5-5.8,3.7C144.6,59.2,145.3,60.1,150.3,61.4z"/>
		<path class="st0" d="M189.4,51.9c0-3.5-7.3-3.6-7.3-8.9c0-1.3,0.9-3.6,2.6-6c0.7,4.1,2.3,6.2,5.9,7.5c6.9,2.6,7.9,6.5,7.9,10.6
			c0,7-4.9,15.8-17.6,15.8c-10.1,0-17.4-9-17.4-16.7c0-2.1,0.5-4.4,1.9-4.4c1.2,0,1.6,0.9,2.5,1.9c3.5,3.5,7.3,4.4,12.9,4.4
			C185.8,56,189.4,54,189.4,51.9z M189.7,57.5c-2.7,1.2-3.7,1-3.7,3.7c0,1-0.2,2.3-0.2,3c0,0.9,0.2,1.5,1.2,1.5
			c2.8,0,7.3-4.8,7.3-8.8c0-1.1-0.6-1.6-1.3-1.6C192.3,55.4,191.6,56.6,189.7,57.5z M164.9,18.1c0-5,11.9-7.6,11.9-13.8
			c0-1-0.4-2.8-1.1-4.1c4.1,2.3,7.2,6.1,7.2,9.2c0,5.4-5.6,7.9-5.6,11.2c0,3.9,6,4.5,6,9.4c0,4-5.7,8.6-5.7,13.7
			c0,4,2.8,7.3,7.1,7.8c-1.4,0.3-2.7,0.5-4,0.5c-7.9,0-16-6.5-16-14.2c0-3.8,1.6-7.2,4.1-9.6c2.2,1.9,4.4,3.1,5.8,3.1
			c1.2,0,1.8-0.6,1.8-1.6C176.3,26.9,164.9,24.3,164.9,18.1z"/>
		<path class="st0" d="M119.6,56.6c0.3,2.7,2.8,4.7,5.6,4.4c1-0.1,2-0.4,2.6-0.8c0.6,2.5,2.7,4.1,5.5,3.7c2.9-0.4,4.8-2.6,4.5-5.5
			c-0.1-0.8-0.2-1.2-0.5-1.8c0,0,0.4,0,0.7-0.1c2.8-0.5,4.7-2.8,4.5-5.5c-0.3-2.8-2.8-4.9-5.5-4.6c-1,0.1-2,0.5-2.6,1.1
			c-0.7-2.3-2.9-4.4-5.9-3.9c-2.7,0.4-4.5,2.8-4.2,5.7c0,0.5,0.2,1,0.4,1.6c0,0-0.5,0.1-0.8,0.1C121.7,51.3,119.2,53.6,119.6,56.6z
			 M134.2,53.6c0.2,1.6-1,3.1-2.6,3.3c-1.6,0.2-3.1-1-3.3-2.6c-0.2-1.6,1-3.1,2.6-3.3C132.5,50.8,134,51.9,134.2,53.6z"/>
	</g>
</g>
<g>
	<path class="st0" d="M-190.6,167.3c0.9,0.7,1.5,0.9,1.6,1.3c3.7,8.1,3.6,8.1,9.3,1.2c2-2.4,3.5-6.6,7.3-5.8
		c3.2,0.7,3.2,4.8,4.4,7.6c2,4.6,2.3,11.6,7.8,12.1c6.6,0.6,6.9-6.9,9.2-11.5c2.4-4.9,4.7-9.9,11.7-8.8c2.9,0.4,3.3-1.5,3.5-3.7
		c0.4-4.6,0.8-9.1,1.4-13.7c0.2-1.8-0.7-4.6,2.6-4.5c2.7,0.1,2.9,2.3,2.9,4.5c0,6.6-0.2,13.3,0.1,19.9c0.2,4,0.8,8.1,1.7,12
		c0.8,3.4,1.9,7.7,6,7.9c4.2,0.2,5.5-4,6.5-7.4c1.1-3.9,2-7.9,3-11.8c0.3-1.4,0-3.4,2.4-3c2,0.3,2,2.1,1.8,3.6
		c-0.3,2.8-0.6,5.6-1,8.3c-0.3,2-1.3,4.5,0.5,5.8c2.1,1.5,4.4-0.5,6.3-1.6c3.3-2.1,5.4-5.3,7.5-8.5c1.7-2.5,2.3-5.7,5.7-7.9
		c2.5,4.8,1.7,10,2.3,14.8c0.7,6,3,7.1,7.8,3.5c4.4-3.3,7-8,8.6-13.2c2-6.2,4.5-6.8,9.3-2.3c3.5,3.3,5.2,7.6,6.1,12.1
		c0.9,4.4,2.6,4.4,5.4,1.8c2.5-2.3,6.1-18,4.8-21.1c-1.3-3-5-2.1-7.7-4.9c6.7-1,11-4.1,12.2-10.8c0.5-2.9,3.7-1.6,3.5-0.2
		c-1.2,8.3,4.5,9.7,10.3,10.6c-0.1,2.4-1.6,2.6-2.7,2.9c-3.4,1.1-8.7-1.5-9.5,4.9c-1,7.8-3.2,15.6,2.2,22.8c2.4,3.1,4.5,1.8,6-0.6
		c2.1-3.5,3.6-7.3,5.5-10.9c2.6-5.1,5.2-7.3,12.4-7.8c10.1-0.6,7.9,4.6,8.5,9.7c0.1,1,0.2,2.1,0.5,3c1.2,3.2,1.1,7.8,5.9,7.8
		c4.5,0,5.3-4.1,6.4-7.4c1.1-3.5,0.9-7.6,4.2-10.2c0.5,0.3,1.1,0.4,1.3,0.8c4.1,8.2,4,8.2,10,1c1-1.2,2.1-2.3,3-3.5
		c3-3.9,5.1-3.4,6.7,1.1c1,2.9,2,5.8,3.1,8.6c3.4,8.6,4.4,8.9,12.5,4.3c0.7,3.4-1,5.9-3,8.2c-3.5,4.1-6.8,4-9.6-0.9
		c-0.1-0.2-0.3-0.4-0.4-0.7c-5.7-12.5-5.3-16.4-19.9-2.5c-5.2,5-11.6,9.4-17.4,6.1c-7.4-4.2-12.4-1.6-19.2,0.1
		c-5,1.2-11-1.8-16.8,1.1c-2,1-5.4-1.6-6.8-4.1c-2.8-5-5.5-3.6-8.8-0.6c-3.7,3.3-8.1,5.3-13.2,5.1c-2.6-0.1-5.4-1.1-5.6-4.2
		c-0.2-3.4,2.9-2,4.6-2.2c3-0.3,4.8-1.7,5.1-4.6c0.4-3.5-0.6-6.7-3.3-9c-2.1-1.8-3,0.7-4,2c-3.3,4.5-6.2,9.4-10.3,13.2
		c-6.4,5.9-9.8,5.2-11.4-3c-1.3-6.7-3.3-5.5-6.9-1.8c-2.9,3.1-5.9,8.8-9.7,7.9c-6.8-1.8-15,2.2-18.7-0.2c-8-5.1-13.2-3.4-19.4,1.3
		c-0.7,0.5-2.4,0.8-2.9,0.4c-4.7-4.5-8.9-5-14.6-0.9c-2.6,1.9-4.3-2.6-5.7-4.9c-7.6-12.8-8.2-13.4-18.5-2.4
		c-6,6.4-13.1,5.8-20.1,7.2c-2.2,0.4-4-0.9-5-2.8c-2.4-4.8-4.6-4.5-8.4-0.9c-9.1,8.5-17.1,5.8-20-6.2c-0.2-0.7-0.3-1.5-0.5-2.2
		c-0.8-3.6,1.4-8.7-2.6-10.5c-4.7-2-10,0.1-14.9,1.4c-3.6,0.9-3.5,4-3.8,6.7c-0.5,3.8-0.6,7.6-1.1,11.4c-0.3,2.4-1.5,4.4-4.5,4.2
		c-3.1-0.2-3.7-2.2-3.4-4.8c1.5-14,2.1-27.9-0.4-41.9c-0.4-2.1,0-4.1,2.9-4.4c2.9-0.3,4.2,0.9,4.5,3.8c0.2,2.5,0.5,5.1,1.1,7.6
		c0.8,3.5-1.8,9.1,2.5,10.3c5.5,1.4,11.6,0.5,17.2-1.7c2.1-0.8,2.1-3.4,2.2-5.4c0.2-2.3,0-4.6,0.5-6.9c0.8-3.6,1.1-8.7,6.5-7.4
		c4.8,1.2,2,5.8,1.5,8.4c-1.8,9.4-1.9,18.8-0.6,28.1c0.5,3.7,1.4,8.2,6.3,8.4c4.6,0.1,7.3-3.4,8.7-7.4c1-2.9,1.2-6,2.2-8.9
		c0.7-2,1.3-4.9,4.4-4.3c2.6,0.5,2.4,3,2.3,5c0,2.5-0.2,5.1-0.3,7.6c-0.1,3.5,0.5,7,4.6,7.7c3.7,0.7,6.2-1.8,7.9-4.9
		C-193.9,176.7-194.6,171.3-190.6,167.3z M-134.9,174.1c-0.5-2.8-0.3-6-4.1-6.4c-3.5-0.3-8,7.4-8.1,13.4c0,2.8,0.6,5.7,3.9,5.1
		C-136.6,185-135.9,179.3-134.9,174.1z M-20.9,180.1c0.3,2.5-0.1,6,3.3,5.9c5.6-0.3,7.1-4.8,7.4-9.6c0.1-2.8,0.2-6.6-3.5-6.3
		C-19.2,170.6-19.9,175.7-20.9,180.1z"/>
	<path class="st0" d="M422.5,167.4c1.1,2.8,2.2,5.5,3.5,8.5c4.3-2,6-5.9,8.5-8.9c3.9-4.7,5.7-3.5,7.5,1.5c3.1,8.4,3.2,8.2,9.6,1.8
		c2.6-2.6,4.5-7.7,8.7-6.3c4.2,1.4,3.5,6.8,4.5,10.6c0.1,0.5,0,1,0.2,1.5c1,3.2-0.2,8.4,4.1,8.8c5,0.5,7.1-4.2,8.3-8.5
		c0.2-0.7,0.2-1.5,0.4-2.3c0.8-3.6,0.3-9.1,5.3-8.5c3.6,0.5,1.7,5.6,1.9,8.7c0.1,1.8-0.2,3.6,0,5.3c0.3,3,1.6,5.6,4.7,6.2
		c2.8,0.6,4.9-1.2,6.3-3.5c4.2-7,4.7-15,5-22.9c0.2-4.7-6.3-1.3-7.3-5.9c5.5-0.8,10.5-2.7,11.3-9.4c0.2-1.3,1.3-2.3,2.8-2
		c0.6,0.1,1.5,1.1,1.4,1.5c-1.9,8.7,5.4,8.4,10.3,10c-0.3,2.1-1.7,2.2-2.8,2.6c-3.5,1.1-8.7-1.2-9.6,5c-1.1,7.8-3.1,15.7,1.9,22.9
		c1.4,2,3.9,2.5,6.2,2.1c2.9-0.4,2.3-2.9,2.4-4.8c0.4-4.6,1.2-9.2,3.8-13.1c2.7-4.1,6.3-7.8,11.2-4.1c4.5,3.4,4.2,8.4,1.2,13
		c-0.9,1.5-2.5,2.6-3.7,3.9c-1.1,1.2-3.6,2.1-2.1,4.2c1.1,1.6,3.3,1.2,5,0.9c4.7-0.8,7.3-4.2,9.7-7.9c4.1-6.5,5.1-16.3,16.5-15.1
		c2.1,0.2,2.1-3.2,2.2-5.1c0.4-4.3,0.5-8.7,0.8-13c0.1-1.5,0.4-3.3,2.4-3.3c2.4-0.1,2.9,1.7,2.9,3.6c0,5.1-0.2,10.2,0,15.3
		c0.2,4.8,0.6,9.7,1.4,14.4c1.6,9.3,4.1,11,13.1,9c-4.7,8.5-9.7,9.6-16,2.7c-3-3.3-4.3-1.7-6.6,0.3c-5.2,4.6-10.5,8.1-15.5-0.4
		c-1.6-2.8-3.5-1-5.1,0.1c-5.6,4-11.5,5.1-18,2.6c-1.5-0.6-2.9-0.4-4.4,0.2c-1.4,0.6-2.9,1-4.3,1.4c-6.3,2-8.6-5-12.9-5.9
		c-4.2-0.8-6.4,7.1-12.1,6c-1.2-0.2-2.7-1-3.2-1.9c-3.8-7.9-7.7-4.4-12.7-0.9c-7.1,5-8.9,4-10.7-4.2c-0.2-0.7-0.4-1.5-0.6-2.2
		c-0.6-2.4-0.6-5.7-3.1-6.6c-2.8-0.9-4.3,2.2-5.9,4c-2.6,2.8-4.9,5.9-7.3,8.8c-1,1.1-2.2,2.5-3.8,1.9c-1.7-0.7-1.2-2.5-1.3-4
		c-0.2-3.4,1.6-8.4-1.9-9.8c-4.3-1.8-7.6,2.9-9.5,6c-4.8,8-13.1,6.7-20.1,9c-1.9,0.6-3.8-0.6-4.6-2.1c-3.3-6.8-7.5-4.8-12-1.6
		c-0.4,0.3-0.9,0.5-1.4,0.7c-19.2,8.6-27.4,3.4-27.1-17.4c0.1-7.6,0.7-15.3,2.3-22.8c0.8-3.6,1.5-8.1,6.1-7.1c5,1.1,2.7,5.8,2,9
		c-1.8,8-2.8,16.1-2.1,24.3c0.4,4.7-0.5,10.7,6.9,11.8c7.8,1.1,16.2-3,18.3-9.2c1.1-3.1,1.8-6.4,2.9-9.5c0.5-1.4,1.4-3.1,3.1-2.7
		c1.6,0.4,2.1,2.1,2.2,3.6c0.1,3.3,0.1,6.6,0,9.9c0,3.6,0.5,7,4.6,7.7c3.8,0.6,6.3-1.8,7.8-5c1.1-2.3,1.4-4.9,2.4-7.2
		C419.4,171.6,419.3,168.8,422.5,167.4z M549.8,181.6c0.3,2.2,0.3,4.9,3.8,5.1c3.9,0.2,8.2-6.2,8.1-12.1c0-2.9-0.5-5.8-3.9-6.4
		C554.4,167.5,549.7,175.4,549.8,181.6z M522.6,176.2c0.5,2-0.2,5.4,2.9,5.1c3.8-0.3,5.2-3.9,5.2-7.3c0-2.5-1.1-5.7-4.1-5.2
		C523.1,169.4,522.8,173,522.6,176.2z"/>
	<path class="st0" d="M402.3,141.4c2.5,0.6,4.4,1.7,4.1,4.1c-0.3,2.7-1.7,4.9-4.7,5.1c-2.5,0.1-3.5-1.7-3.5-4
		C398.2,143.6,399.9,142.1,402.3,141.4z"/>
	<path class="st0" d="M-210,141c2.4,0.1,3.9,1.7,4,3.7c0.2,2.9-1.1,5.6-4.5,5.8c-2.3,0.1-3.4-1.8-3.5-4
		C-214.1,143.6-212.5,141.9-210,141z"/>
	<path class="st0" d="M487.6,146.8c-0.2,1.7-1.6,3.8-4.6,3.8c-2.4,0-3.6-1.9-3.5-4.1c0.1-2.9,1.8-4.6,4.8-4.7
		C486.8,141.8,487.9,143.3,487.6,146.8z"/>
</g>
</svg>
