<?xml version="1.0" encoding="utf-8"?>
<!-- Generator: Adobe Illustrator 13.0.0, SVG Export Plug-In  -->
<!DOCTYPE svg PUBLIC "-//W3C//DTD SVG 1.1 Tiny//EN" "http://www.w3.org/Graphics/SVG/1.1/DTD/svg11-tiny.dtd" [
	<!ENTITY ns_flows "http://ns.adobe.com/Flows/1.0/">
]>
<svg version="1.1" baseProfile="tiny"
	 xmlns="http://www.w3.org/2000/svg" xmlns:xlink="http://www.w3.org/1999/xlink" xmlns:a="http://ns.adobe.com/AdobeSVGViewerExtensions/3.0/"
	 x="0px" y="0px" width="76px" height="76px" viewBox="-0.392 -0.16 76 76" xml:space="preserve">
<defs>
</defs>
<circle fill="none" stroke="#69C5EF" stroke-width="0.957" stroke-miterlimit="10" cx="37.756" cy="37.756" r="37.278"/>
<path fill="#69C5EF" d="M46.569,34.211c0-4.789-3.882-8.67-8.67-8.67c-4.789,0-8.67,3.881-8.67,8.67
	c0,2.255,0.867,4.303,2.276,5.845l-0.017,0.001c0,0,0.033,0.027,0.084,0.07c0.146,0.158,0.301,0.309,0.458,0.454
	c0.771,0.838,2.093,2.66,2.093,5.335c0,0,0,1.392,1.031,1.392h2.729h2.729c1.031,0,1.031-1.392,1.031-1.392
	c0-2.523,1.179-4.289,1.959-5.184C45.417,39.143,46.569,36.814,46.569,34.211"/>
<path fill="#69C5EF" d="M40.358,47.867h-4.92c-0.592,0-1.07,0.479-1.07,1.07v1.619c0,0.536,0.395,0.975,0.906,1.055v0.314
	c0,0.591,0.48,1.07,1.07,1.07h3.106c0.591,0,1.071-0.479,1.071-1.07v-0.314c0.512-0.08,0.906-0.519,0.906-1.055v-1.619
	C41.428,48.346,40.949,47.867,40.358,47.867"/>
<path fill="#69C5EF" d="M55.304,38.965h-4.702c-0.707,0-1.282-0.575-1.282-1.282c0-0.708,0.575-1.282,1.282-1.282h4.702
	c0.706,0,1.282,0.574,1.282,1.282C56.586,38.39,56.01,38.965,55.304,38.965"/>
<path fill="#69C5EF" d="M24.817,38.965h-4.702c-0.708,0-1.282-0.575-1.282-1.282c0-0.708,0.574-1.282,1.282-1.282h4.702
	c0.707,0,1.281,0.574,1.281,1.282C26.098,38.39,25.524,38.965,24.817,38.965"/>
<path fill="#69C5EF" d="M37.78,22.653c-0.709,0-1.282-0.575-1.282-1.283v-4.701c0-0.708,0.573-1.282,1.282-1.282
	c0.707,0,1.282,0.574,1.282,1.282v4.701C39.062,22.078,38.487,22.653,37.78,22.653"/>
<path fill="#69C5EF" d="M47.612,28.209c-0.374,0-0.744-0.162-0.996-0.475c-0.447-0.551-0.362-1.357,0.188-1.804l4.132-3.349
	c0.55-0.446,1.358-0.362,1.804,0.189c0.445,0.55,0.361,1.356-0.189,1.803l-4.132,3.348C48.18,28.115,47.895,28.209,47.612,28.209"/>
<path fill="#69C5EF" d="M27.522,28.85c-0.232,0-0.465-0.062-0.674-0.191l-5.058-3.135c-0.601-0.373-0.786-1.164-0.414-1.766
	c0.375-0.603,1.166-0.787,1.765-0.414l5.057,3.134c0.601,0.373,0.787,1.164,0.415,1.767C28.371,28.635,27.951,28.85,27.522,28.85"/>
<path fill="#FFFFFF" d="M39.062,28.209c0,0,3.96,0.387,4.847,5.089C43.909,33.298,42.42,29.996,39.062,28.209"/>
</svg>
