<?xml version="1.0" encoding="utf-8"?>
<!-- Generator: Adobe Illustrator 13.0.0, SVG Export Plug-In  -->
<!DOCTYPE svg PUBLIC "-//W3C//DTD SVG 1.1 Tiny//EN" "http://www.w3.org/Graphics/SVG/1.1/DTD/svg11-tiny.dtd" [
	<!ENTITY ns_flows "http://ns.adobe.com/Flows/1.0/">
]>
<svg version="1.1" baseProfile="tiny"
	 xmlns="http://www.w3.org/2000/svg" xmlns:xlink="http://www.w3.org/1999/xlink" xmlns:a="http://ns.adobe.com/AdobeSVGViewerExtensions/3.0/"
	 x="0px" y="0px" width="76px" height="76px" viewBox="-0.392 -0.246 76 76" xml:space="preserve">
<defs>
</defs>
<circle fill="none" stroke="#69C5EF" stroke-width="0.957" stroke-miterlimit="10" cx="37.756" cy="37.756" r="37.278"/>
<path fill-rule="evenodd" fill="#69C5EF" d="M48.973,50.132c0,1.528-1.238,2.766-2.766,2.766H24.08
	c-1.525,0-2.765-1.237-2.765-2.766v-18.58c0-1.528,1.24-2.767,2.765-2.767h5.456l0.883,2.102h15.789
	c1.527,0,2.766,1.237,2.766,2.766V50.132z"/>
<path fill-rule="evenodd" fill="#69C5EF" d="M51.436,25.355H34.462l-1.085-1.626h-4.09c-1.406,0-2.566,1.048-2.744,2.404
	c-0.014,0.118,0,1.864,0,1.987l4.459,0.045l0.574,1.107h16.254c1.749,0,3.172,1.42,3.172,3.171v14.922h0.434
	c1.528,0,2.767-1.237,2.767-2.766V28.121C54.203,26.593,52.964,25.355,51.436,25.355"/>
</svg>
