<?xml version="1.0" encoding="utf-8"?>
<!-- Generator: Adobe Illustrator 13.0.0, SVG Export Plug-In  -->
<!DOCTYPE svg PUBLIC "-//W3C//DTD SVG 1.1 Tiny//EN" "http://www.w3.org/Graphics/SVG/1.1/DTD/svg11-tiny.dtd" [
	<!ENTITY ns_flows "http://ns.adobe.com/Flows/1.0/">
]>
<svg version="1.1" baseProfile="tiny"
	 xmlns="http://www.w3.org/2000/svg" xmlns:xlink="http://www.w3.org/1999/xlink" xmlns:a="http://ns.adobe.com/AdobeSVGViewerExtensions/3.0/"
	 x="0px" y="0px" width="76px" height="76px" viewBox="-0.13 -0.16 76 76" xml:space="preserve">
<defs>
</defs>
<circle fill="none" stroke="#69C5EF" stroke-width="0.957" stroke-miterlimit="10" cx="37.756" cy="37.756" r="37.277"/>
<path fill="#4EC2F0" d="M50.812,41.521l-2.444-0.562c-0.303-1.224-0.784-2.383-1.438-3.46l1.328-2.129
	c0.221-0.355,0.167-0.814-0.126-1.11l-2.239-2.236c-0.295-0.298-0.752-0.35-1.108-0.129l-2.136,1.327
	c-1.07-0.646-2.224-1.121-3.448-1.421l-0.567-2.46c-0.096-0.407-0.457-0.696-0.875-0.696h-3.167c-0.417,0-0.782,0.289-0.875,0.696
	l-0.571,2.46c-1.209,0.297-2.364,0.773-3.449,1.424l-2.141-1.335c-0.354-0.222-0.814-0.168-1.109,0.125l-2.236,2.246
	c-0.294,0.295-0.348,0.754-0.125,1.109l1.332,2.134c-0.652,1.078-1.135,2.233-1.437,3.455l-2.451,0.562
	c-0.407,0.096-0.694,0.459-0.694,0.877v3.172c0,0.416,0.287,0.782,0.694,0.875l2.451,0.564c0.302,1.227,0.784,2.389,1.431,3.458
	l-1.335,2.139c-0.22,0.352-0.166,0.815,0.127,1.109l2.239,2.235c0.293,0.296,0.75,0.35,1.105,0.126l2.137-1.327
	c1.078,0.654,2.244,1.135,3.469,1.44l0.563,2.435c0.093,0.407,0.458,0.695,0.875,0.695h3.167c0.418,0,0.779-0.288,0.875-0.695
	l0.561-2.435c1.229-0.306,2.389-0.786,3.467-1.44l2.129,1.327c0.357,0.224,0.816,0.17,1.111-0.126l2.237-2.246
	c0.296-0.294,0.347-0.752,0.127-1.108l-1.327-2.123c0.654-1.085,1.136-2.248,1.434-3.466l2.44-0.562
	c0.407-0.093,0.696-0.459,0.696-0.875v-3.172C51.509,41.98,51.22,41.617,50.812,41.521 M36.171,49.216
	c-2.879,0-5.221-2.344-5.221-5.225c0-2.876,2.342-5.219,5.221-5.219c2.883,0,5.226,2.343,5.226,5.219
	C41.396,46.872,39.054,49.216,36.171,49.216"/>
<path fill="#4EC2F0" d="M50.692,19.848l-1.327-0.305c-0.164-0.662-0.424-1.293-0.779-1.879l0.722-1.153
	c0.118-0.193,0.092-0.44-0.068-0.604l-1.217-1.213c-0.158-0.161-0.408-0.19-0.602-0.069l-1.157,0.719
	c-0.582-0.349-1.208-0.607-1.87-0.771l-0.309-1.334c-0.053-0.222-0.25-0.377-0.477-0.377h-1.717c-0.227,0-0.424,0.155-0.477,0.377
	l-0.311,1.334c-0.654,0.162-1.281,0.421-1.87,0.773l-1.16-0.724c-0.193-0.121-0.442-0.092-0.603,0.066l-1.215,1.221
	c-0.158,0.16-0.188,0.407-0.068,0.601l0.726,1.157c-0.355,0.584-0.617,1.213-0.779,1.875l-1.331,0.305
	c-0.221,0.052-0.376,0.249-0.376,0.476v1.722c0,0.227,0.155,0.424,0.376,0.474l1.331,0.307c0.162,0.667,0.424,1.296,0.775,1.877
	l-0.724,1.16c-0.121,0.19-0.092,0.441,0.068,0.602l1.215,1.213c0.158,0.159,0.407,0.189,0.6,0.068l1.161-0.721
	c0.584,0.355,1.216,0.617,1.882,0.781l0.303,1.321c0.053,0.222,0.25,0.377,0.477,0.377h1.717c0.227,0,0.424-0.155,0.477-0.377
	l0.303-1.321c0.668-0.164,1.297-0.426,1.883-0.781l1.153,0.721c0.193,0.121,0.442,0.091,0.604-0.068l1.213-1.218
	c0.16-0.16,0.188-0.408,0.07-0.603l-0.723-1.151c0.356-0.589,0.617-1.22,0.779-1.881l1.324-0.306
	c0.221-0.05,0.377-0.247,0.377-0.474v-1.722C51.069,20.097,50.913,19.899,50.692,19.848 M42.748,24.022
	c-1.562,0-2.834-1.271-2.834-2.835c0-1.561,1.272-2.831,2.834-2.831c1.563,0,2.835,1.271,2.835,2.831
	C45.583,22.752,44.312,24.022,42.748,24.022"/>
<path fill="#4EC2F0" d="M55.091,30.43l-0.504-0.115c-0.064-0.253-0.163-0.492-0.299-0.716l0.275-0.439
	c0.045-0.072,0.035-0.168-0.025-0.23l-0.464-0.462c-0.06-0.061-0.155-0.072-0.229-0.025l-0.44,0.274
	c-0.223-0.134-0.462-0.232-0.713-0.295l-0.117-0.507c-0.021-0.084-0.096-0.145-0.181-0.145h-0.655c-0.087,0-0.162,0.061-0.181,0.145
	l-0.118,0.507c-0.25,0.062-0.488,0.161-0.713,0.296l-0.443-0.277c-0.072-0.045-0.168-0.035-0.229,0.025l-0.461,0.466
	c-0.062,0.061-0.074,0.156-0.027,0.229l0.276,0.44c-0.136,0.223-0.235,0.462-0.298,0.715l-0.508,0.115
	c-0.082,0.021-0.143,0.096-0.143,0.181v0.657c0,0.085,0.061,0.161,0.143,0.181l0.508,0.116c0.062,0.254,0.162,0.493,0.296,0.716
	l-0.276,0.44c-0.045,0.072-0.033,0.168,0.027,0.229l0.463,0.465c0.061,0.06,0.154,0.069,0.229,0.023l0.441-0.273
	c0.223,0.135,0.463,0.234,0.717,0.298l0.116,0.503c0.019,0.084,0.094,0.144,0.181,0.144h0.655c0.085,0,0.16-0.06,0.181-0.144
	l0.115-0.503c0.253-0.063,0.494-0.163,0.717-0.298l0.44,0.273c0.073,0.046,0.169,0.036,0.229-0.023l0.461-0.466
	c0.062-0.062,0.072-0.157,0.027-0.229L54.29,32.28c0.136-0.225,0.235-0.464,0.297-0.716l0.504-0.116
	c0.084-0.02,0.144-0.096,0.144-0.181V30.61C55.234,30.525,55.175,30.45,55.091,30.43 M52.065,32.02
	c-0.594,0-1.078-0.484-1.078-1.078c0-0.595,0.484-1.079,1.078-1.079c0.596,0,1.08,0.484,1.08,1.079
	C53.146,31.535,52.661,32.02,52.065,32.02"/>
</svg>
