<?xml version="1.0" encoding="utf-8"?>
<!-- Generator: Adobe Illustrator 13.0.0, SVG Export Plug-In  -->
<!DOCTYPE svg PUBLIC "-//W3C//DTD SVG 1.1 Tiny//EN" "http://www.w3.org/Graphics/SVG/1.1/DTD/svg11-tiny.dtd" [
	<!ENTITY ns_flows "http://ns.adobe.com/Flows/1.0/">
]>
<svg version="1.1" baseProfile="tiny"
	 xmlns="http://www.w3.org/2000/svg" xmlns:xlink="http://www.w3.org/1999/xlink" xmlns:a="http://ns.adobe.com/AdobeSVGViewerExtensions/3.0/"
	 x="0px" y="0px" width="76px" height="76px" viewBox="-0.13 -0.246 76 76" xml:space="preserve">
<defs>
</defs>
<circle fill="none" stroke="#69C5EF" stroke-width="0.957" stroke-miterlimit="10" cx="37.756" cy="37.756" r="37.277"/>
<path fill="none" stroke="#69C5EF" stroke-width="0.957" stroke-miterlimit="10" d="M44.522,21.866H42.71v7.451l7.891,15.967
	c0,0,2.021,4.125-1.715,6.254H28.285c-3.737-2.129-1.718-6.254-1.718-6.254l7.892-15.967v-7.451h-1.778"/>
<path fill="#69C5EF" d="M32.792,37.213l-3.725,7.717c0,0-1.824,4.081,1.217,4.613h16.879c0,0,2.307-1.065,1.33-3.549l-5.057-9.846
	C43.437,36.148,37.761,40.672,32.792,37.213"/>
<circle fill="none" stroke="#69C5EF" stroke-width="0.213" stroke-miterlimit="10" cx="38.629" cy="24.66" r="0.638"/>
<circle fill="none" stroke="#69C5EF" stroke-width="0.957" stroke-miterlimit="10" cx="39.92" cy="17.542" r="2.528"/>
</svg>
