<?xml version="1.0" encoding="utf-8"?>
<!-- Generator: Adobe Illustrator 17.0.0, SVG Export Plug-In . SVG Version: 6.00 Build 0)  -->
<!DOCTYPE svg PUBLIC "-//W3C//DTD SVG 1.1//EN" "http://www.w3.org/Graphics/SVG/1.1/DTD/svg11.dtd">
<svg version="1.1" id="Layer_1" xmlns="http://www.w3.org/2000/svg" xmlns:xlink="http://www.w3.org/1999/xlink" x="0px" y="0px"
	 width="79px" height="80px" viewBox="0 0 79 80" enable-background="new 0 0 79 80" xml:space="preserve">
<circle fill="none" stroke="#FFFFFF" stroke-width="0.8481" stroke-miterlimit="10" cx="39.342" cy="39.341" r="34.49"/>
<circle fill="none" stroke="#FFFFFF" stroke-width="2.0862" stroke-miterlimit="10" cx="39.342" cy="39.341" r="38.299"/>
<g>
	<path fill="#52BBEB" d="M26.057,51.28c0.602,0,1.09,0.489,1.09,1.092c0,0.601-0.488,1.089-1.09,1.089
		c-0.603,0-1.091-0.487-1.091-1.089C24.966,51.769,25.454,51.28,26.057,51.28z"/>
	<path fill="#52BBEB" d="M26.057,41.557c0.602,0,1.09,0.489,1.09,1.092c0,0.601-0.488,1.089-1.09,1.089
		c-0.603,0-1.091-0.487-1.091-1.089C24.966,42.046,25.454,41.557,26.057,41.557z"/>
	<path fill="#52BBEB" d="M26.057,31.835c0.602,0,1.09,0.488,1.09,1.09c0,0.602-0.488,1.09-1.09,1.09
		c-0.603,0-1.091-0.488-1.091-1.09C24.966,32.323,25.454,31.835,26.057,31.835z"/>
	<path fill="#52BBEB" d="M22.787,44.163v-3.032c0-0.837,0.683-1.519,1.517-1.519h17.603c0.645-1.486,1.699-2.755,3.025-3.656H24.302
		c-0.833,0-1.517-0.682-1.517-1.518v-3.031c0-0.836,0.683-1.518,1.517-1.518h27.301c0.832,0,1.516,0.682,1.516,1.518v3.032
		c0,0.259-0.082,0.491-0.196,0.705c0.471,0.196,0.915,0.439,1.339,0.713c0.233-0.425,0.373-0.903,0.373-1.418v-3.032
		c0-0.034-0.016-0.06-0.016-0.093l-3.026-11.014c-0.092-0.828-0.924-1.507-1.851-1.507H26.164c-0.927,0-1.761,0.68-1.852,1.507
		l-3.026,11.014c0,0.032-0.016,0.058-0.016,0.093v3.032c0,0.787,0.309,1.502,0.804,2.041l-0.788,4.556
		c0,0.033-0.016,0.06-0.016,0.093v3.032c0,0.786,0.309,1.502,0.804,2.041l-0.788,4.556c0,0.034-0.016,0.06-0.016,0.093v3.032
		c0,1.673,1.361,3.034,3.032,3.034h14.224v-1.516H24.302c-0.833,0-1.517-0.684-1.517-1.519v-3.031c0-0.837,0.683-1.517,1.517-1.517
		h14.224v-2.124c0-0.567,0.165-1.09,0.445-1.532H24.301C23.469,45.681,22.787,45,22.787,44.163z"/>
	<path fill="#FFD422" d="M56.547,45.308v-2.326c0-3.786-3.076-6.864-6.86-6.864c-3.782,0-6.861,3.078-6.861,6.864v2.326h2.545
		v-2.326c0-2.383,1.935-4.321,4.317-4.321c2.38,0,4.32,1.936,4.32,4.321v2.326H56.547L56.547,45.308z"/>
	<path fill="#FFD422" d="M57.955,45.944H41.422c-0.699,0-1.274,0.573-1.274,1.271V59.93c0,0.699,0.575,1.276,1.274,1.276h16.533
		c0.696,0,1.267-0.576,1.267-1.276V47.214C59.223,46.517,58.648,45.944,57.955,45.944z"/>
</g>
</svg>
