<?xml version="1.0" encoding="utf-8"?>
<!-- Generator: Adobe Illustrator 13.0.0, SVG Export Plug-In  -->
<!DOCTYPE svg PUBLIC "-//W3C//DTD SVG 1.1 Tiny//EN" "http://www.w3.org/Graphics/SVG/1.1/DTD/svg11-tiny.dtd" [
	<!ENTITY ns_flows "http://ns.adobe.com/Flows/1.0/">
]>
<svg version="1.1" baseProfile="tiny"
	 xmlns="http://www.w3.org/2000/svg" xmlns:xlink="http://www.w3.org/1999/xlink" xmlns:a="http://ns.adobe.com/AdobeSVGViewerExtensions/3.0/"
	 x="0px" y="0px" width="80px" height="80px" viewBox="-0.887 -0.588 80 80" xml:space="preserve">
<defs>
</defs>
<circle fill-rule="evenodd" fill="none" stroke="#FFFFFF" stroke-width="0.8481" stroke-miterlimit="10" cx="39.342" cy="39.341" r="34.49"/>
<circle fill-rule="evenodd" fill="none" stroke="#FFFFFF" stroke-width="2.0862" stroke-miterlimit="10" cx="39.342" cy="39.341" r="38.299"/>
<path fill="#F36F53" d="M42.033,25.445c3.344,0.613,6.807,2.591,7.895,6.006c0.44,1.381,0.104,2.248-1.371,2.248
	c-0.771,0-1.544,0-2.315,0c-1.306,0-1.604-1.134-2.423-1.916c-0.86-0.822-1.879-1.281-3.048-1.453
	c-2.112-0.309-5.489-0.177-6.611,2.041c-1.294,2.556,1.574,3.77,3.507,4.279c2.472,0.651,5.026,1.002,7.45,1.83
	c2.245,0.767,4.547,2.047,5.395,4.404c0.868,2.422,0.564,5.273-0.985,7.349c-1.54,2.062-3.996,3.2-6.468,3.69
	c-0.277,0.055-1.024-0.014-1.024,0.321c0,0.311,0,0.62,0,0.931c0,0.557,0,1.112,0,1.668c0,1.664-3.336,1.094-4.37,1.094
	c-1.597,0-1.093-2.848-1.093-3.845c-3.481-0.542-7.504-2.396-8.652-6.021c-0.416-1.312-0.506-2.719,1.175-2.719
	c0.82,0,1.64,0,2.46,0c1.268,0,1.512,0.861,2.152,1.76c0.731,1.025,1.809,1.557,3.007,1.861c2.243,0.572,5.445,0.484,7.43-0.832
	c0.968-0.642,1.596-1.67,1.309-2.861c-0.273-1.131-1.492-1.633-2.486-1.96c-2.583-0.851-5.313-1.206-7.92-1.987
	c-2.246-0.674-4.566-1.706-5.741-3.862c-1.21-2.222-1.188-5.269,0.035-7.468c1.3-2.34,3.654-3.754,6.189-4.411
	c0.28-0.072,1.043-0.046,1.043-0.382c0-0.31,0-0.62,0-0.93c0-0.557,0-1.113,0-1.669c0-1.663,3.337-1.093,4.37-1.093
	C42.547,21.52,42.033,24.441,42.033,25.445z"/>
</svg>
