<?xml version="1.0" encoding="utf-8"?>
<!-- Generator: Adobe Illustrator 13.0.0, SVG Export Plug-In  -->
<!DOCTYPE svg PUBLIC "-//W3C//DTD SVG 1.1 Tiny//EN" "http://www.w3.org/Graphics/SVG/1.1/DTD/svg11-tiny.dtd" [
	<!ENTITY ns_flows "http://ns.adobe.com/Flows/1.0/">
]>
<svg version="1.1" baseProfile="tiny"
	 xmlns="http://www.w3.org/2000/svg" xmlns:xlink="http://www.w3.org/1999/xlink" xmlns:a="http://ns.adobe.com/AdobeSVGViewerExtensions/3.0/"
	 x="0px" y="0px" width="80px" height="80px" viewBox="-0.65 -0.588 80 80" xml:space="preserve">
<defs>
</defs>
<circle fill-rule="evenodd" fill="none" stroke="#FFFFFF" stroke-width="0.8481" stroke-miterlimit="10" cx="39.342" cy="39.341" r="34.49"/>
<circle fill-rule="evenodd" fill="none" stroke="#FFFFFF" stroke-width="2.0862" stroke-miterlimit="10" cx="39.342" cy="39.341" r="38.299"/>
<path fill="#69C181" d="M54.287,32.276l-7.035-2.738c0,0-2.559-0.732-4.404,0.543c-1.294,0.895-2.18,0.772-2.18,0.772
	s-1.041,0.122-2.565-0.772c-2.173-1.275-5.185-0.543-5.185-0.543l-8.312,2.749l0.008,0.002c-4.211,0.975-7.361,4.747-7.361,9.249
	c0,5.238,4.262,9.5,9.5,9.5c3.539,0,6.628-1.95,8.262-4.829c1.048-0.893,2.479-1.879,3.696-1.879c1.567,0,3.788,1.164,5.398,2.158
	c1.673,2.723,4.669,4.55,8.093,4.55c5.238,0,9.5-4.262,9.5-9.5C61.701,37.018,58.524,33.23,54.287,32.276z M26.752,49.038
	c-4.137,0-7.5-3.364-7.5-7.5s3.363-7.5,7.5-7.5c4.135,0,7.5,3.364,7.5,7.5S30.887,49.038,26.752,49.038z M52.201,49.038
	c-4.135,0-7.5-3.364-7.5-7.5s3.365-7.5,7.5-7.5c4.137,0,7.5,3.364,7.5,7.5S56.338,49.038,52.201,49.038z"/>
<path fill="#69C181" d="M52.459,35.542c-0.278-0.031-0.521,0.159-0.557,0.433s0.158,0.523,0.432,0.56
	c0.17,0.022,4.16,0.593,4.565,5.05c0.024,0.259,0.241,0.454,0.497,0.454c0.016,0,0.031-0.001,0.047-0.002
	c0.274-0.024,0.477-0.269,0.452-0.544C57.416,36.222,52.509,35.549,52.459,35.542z"/>
</svg>
