<?xml version="1.0" encoding="utf-8"?>
<!-- Generator: Adobe Illustrator 13.0.0, SVG Export Plug-In  -->
<!DOCTYPE svg PUBLIC "-//W3C//DTD SVG 1.1 Tiny//EN" "http://www.w3.org/Graphics/SVG/1.1/DTD/svg11-tiny.dtd" [
	<!ENTITY ns_flows "http://ns.adobe.com/Flows/1.0/">
]>
<svg version="1.1" baseProfile="tiny"
	 xmlns="http://www.w3.org/2000/svg" xmlns:xlink="http://www.w3.org/1999/xlink" xmlns:a="http://ns.adobe.com/AdobeSVGViewerExtensions/3.0/"
	 x="0px" y="0px" width="80px" height="80px" viewBox="-0.415 -0.588 80 80" xml:space="preserve">
<defs>
</defs>
<circle fill-rule="evenodd" fill="none" stroke="#FFFFFF" stroke-width="0.8481" stroke-miterlimit="10" cx="39.342" cy="39.341" r="34.49"/>
<circle fill-rule="evenodd" fill="none" stroke="#FFFFFF" stroke-width="2.0862" stroke-miterlimit="10" cx="39.342" cy="39.341" r="38.299"/>
<path fill="#FFD422" d="M44.419,37.426c0.291,0,0.526-0.236,0.526-0.525v-4.63c0-0.291-0.235-0.526-0.526-0.526H39.79
	c-0.291,0-0.526,0.235-0.526,0.526l1.56,1.56l-6.855,6.855H21.895c-0.795,0-1.439,0.645-1.439,1.439v12.67
	c0,0.795,0.645,1.439,1.439,1.439h12.67c0.795,0,1.439-0.645,1.439-1.439V42.723l6.855-6.855L44.419,37.426z"/>
<path fill="#F3732A" d="M50.972,22.447H27.384c-1.836,0-3.329,1.493-3.329,3.328v12.217h1.296V25.775
	c0-1.121,0.912-2.032,2.033-2.032h23.588c1.121,0,2.032,0.911,2.032,2.032v23.588c0,1.121-0.911,2.033-2.032,2.033H38.697v1.296
	h12.274c1.835,0,3.328-1.493,3.328-3.329V25.775C54.3,23.94,52.807,22.447,50.972,22.447z"/>
</svg>
