<?xml version="1.0" encoding="utf-8"?>
<!-- Generator: Adobe Illustrator 13.0.0, SVG Export Plug-In  -->
<!DOCTYPE svg PUBLIC "-//W3C//DTD SVG 1.1 Tiny//EN" "http://www.w3.org/Graphics/SVG/1.1/DTD/svg11-tiny.dtd" [
	<!ENTITY ns_flows "http://ns.adobe.com/Flows/1.0/">
]>
<svg version="1.1" baseProfile="tiny"
	 xmlns="http://www.w3.org/2000/svg" xmlns:xlink="http://www.w3.org/1999/xlink" xmlns:a="http://ns.adobe.com/AdobeSVGViewerExtensions/3.0/"
	 x="0px" y="0px" width="76px" height="77px" viewBox="-0.001 -0.584 76 77" xml:space="preserve">
<defs>
</defs>
<path fill="#C2CAD5" d="M75.766,56.052c0,10.887-8.826,19.714-19.715,19.714H19.715C8.826,75.766,0,66.938,0,56.052V19.714
	C0,8.827,8.826,0,19.715,0h36.336c10.889,0,19.715,8.827,19.715,19.714V56.052z"/>
<path fill="#FFFFFF" d="M35.866,26.212c-5.863,2.305-6.77,7.41-6.805,7.627c-0.139,0.831,0.424,1.616,1.254,1.752
	c0.086,0.014,0.172,0.021,0.25,0.021c0.734,0,1.383-0.53,1.504-1.276c0.006-0.036,0.643-3.605,4.914-5.285
	c0.783-0.308,1.168-1.191,0.861-1.976C37.536,26.29,36.647,25.905,35.866,26.212z"/>
<path fill="#FFFFFF" d="M26.194,25.783c0.594-0.596,0.594-1.562,0-2.155l-2.598-2.595c-0.594-0.597-1.559-0.597-2.156,0
	c-0.594,0.595-0.594,1.561,0,2.155l2.598,2.595c0.297,0.298,0.688,0.446,1.076,0.446C25.505,26.229,25.894,26.081,26.194,25.783z"/>
<path fill="#FFFFFF" d="M20.485,35.575H17.71c-0.842,0-1.525,0.684-1.525,1.525s0.684,1.525,1.525,1.525h2.775
	c0.846,0,1.525-0.684,1.525-1.525S21.331,35.575,20.485,35.575z"/>
<path fill="#FFFFFF" d="M38.575,21.034c-7.809,0-14.16,6.352-14.16,14.16c0,5.145,2.865,9.91,7.371,12.399v7.473
	c0,0.842,0.682,1.524,1.525,1.524h0.125v1.68c0,0.842,0.68,1.525,1.525,1.525h7.094c0.844,0,1.525-0.684,1.525-1.525v-1.68h0.486
	c0.84,0,1.521-0.683,1.521-1.524v-7.567c4.375-2.502,7.15-7.23,7.15-12.305C52.739,27.386,46.384,21.034,38.575,21.034z
	 M42.542,53.542h-7.705v-3.133h7.705V53.542z M43.403,45.208c-0.527,0.254-0.861,0.787-0.861,1.373v0.778h-7.705v-0.701
	c0-0.593-0.346-1.132-0.883-1.381c-3.939-1.835-6.488-5.792-6.488-10.083c0-6.127,4.984-11.111,11.109-11.111
	c6.129,0,11.113,4.984,11.113,11.111C49.688,39.433,47.222,43.363,43.403,45.208z"/>
<path fill="#FFFFFF" d="M51.489,26.229c0.393,0,0.781-0.148,1.078-0.446l2.598-2.595c0.594-0.595,0.594-1.561,0-2.155
	c-0.598-0.597-1.562-0.597-2.156,0l-2.598,2.595c-0.594,0.594-0.594,1.56,0,2.155C50.71,26.081,51.101,26.229,51.489,26.229z"/>
<path fill="#FFFFFF" d="M58.058,35.575h-2.779c-0.84,0-1.521,0.684-1.521,1.525s0.682,1.525,1.521,1.525h2.779
	c0.842,0,1.523-0.684,1.523-1.525S58.899,35.575,58.058,35.575z"/>
<path fill="#FFFFFF" d="M38.304,20.331c0.842,0,1.523-0.684,1.523-1.525V15.22c0-0.842-0.682-1.525-1.523-1.525
	c-0.846,0-1.525,0.684-1.525,1.525v3.586C36.778,19.647,37.458,20.331,38.304,20.331z"/>
</svg>
