<?xml version="1.0" encoding="utf-8"?>
<!-- Generator: Adobe Illustrator 13.0.0, SVG Export Plug-In  -->
<!DOCTYPE svg PUBLIC "-//W3C//DTD SVG 1.1 Tiny//EN" "http://www.w3.org/Graphics/SVG/1.1/DTD/svg11-tiny.dtd" [
	<!ENTITY ns_flows "http://ns.adobe.com/Flows/1.0/">
]>
<svg version="1.1" baseProfile="tiny"
	 xmlns="http://www.w3.org/2000/svg" xmlns:xlink="http://www.w3.org/1999/xlink" xmlns:a="http://ns.adobe.com/AdobeSVGViewerExtensions/3.0/"
	 x="0px" y="0px" width="77px" height="77px" viewBox="-0.334 -0.584 77 77" xml:space="preserve">
<defs>
</defs>
<path fill="#C2CAD5" d="M75.766,56.052c0,10.887-8.826,19.714-19.715,19.714H19.715C8.826,75.766,0,66.938,0,56.052V19.714
	C0,8.827,8.826,0,19.715,0h36.336c10.889,0,19.715,8.827,19.715,19.714V56.052z"/>
<path fill="#FFFFFF" d="M59.959,14.971h-6.507c-0.409,0-0.739,0.329-0.739,0.739l2.191,2.191l-9.635,9.636H28.301
	c-0.283,0-0.552,0.06-0.797,0.164c-0.74,0.301-1.266,1.025-1.266,1.877v16.968l-9.635,9.635l-2.192-2.193
	c-0.409,0-0.739,0.332-0.739,0.74v6.507c0,0.409,0.33,0.741,0.739,0.741h6.507c0.408,0,0.739-0.332,0.739-0.741l-2.192-2.19
	l9.636-9.639h16.969c0.198,0,0.384-0.037,0.563-0.091l4.52,4.522l-1.13,1.129c0,0.21,0.171,0.383,0.382,0.383h3.355
	c0.211,0,0.382-0.173,0.382-0.383V51.61c0-0.212-0.171-0.382-0.382-0.382l-1.131,1.129l-4.564-4.562
	c0.031-0.14,0.066-0.28,0.066-0.43V30.398l9.635-9.635l2.193,2.192c0.408,0,0.738-0.332,0.738-0.741V15.71
	C60.697,15.3,60.367,14.971,59.959,14.971z"/>
</svg>
