<?xml version="1.0" encoding="utf-8"?>
<!-- Generator: Adobe Illustrator 13.0.0, SVG Export Plug-In  -->
<!DOCTYPE svg PUBLIC "-//W3C//DTD SVG 1.1 Tiny//EN" "http://www.w3.org/Graphics/SVG/1.1/DTD/svg11-tiny.dtd" [
	<!ENTITY ns_flows "http://ns.adobe.com/Flows/1.0/">
]>
<svg version="1.1" baseProfile="tiny"
	 xmlns="http://www.w3.org/2000/svg" xmlns:xlink="http://www.w3.org/1999/xlink" xmlns:a="http://ns.adobe.com/AdobeSVGViewerExtensions/3.0/"
	 x="0px" y="0px" width="76px" height="77px" viewBox="-0.178 -0.584 76 77" xml:space="preserve">
<defs>
</defs>
<path fill="#C2CAD5" d="M75.766,56.052c0,10.887-8.826,19.714-19.715,19.714H19.715C8.826,75.766,0,66.938,0,56.052V19.714
	C0,8.827,8.826,0,19.715,0h36.336c10.889,0,19.715,8.827,19.715,19.714V56.052z"/>
<path fill="#FFFFFF" d="M60.902,32.926c0.018-0.035,0.034-0.07,0.047-0.106c0.026-0.066,0.047-0.134,0.062-0.201
	c0.008-0.029,0.019-0.059,0.023-0.088c0.021-0.101,0.03-0.201,0.031-0.303c0-0.007,0.001-0.011,0.001-0.018
	c0-0.019-0.005-0.037-0.006-0.058c-0.003-0.078-0.01-0.155-0.022-0.232c-0.007-0.036-0.016-0.072-0.023-0.107
	c-0.017-0.063-0.035-0.126-0.059-0.188c-0.014-0.036-0.025-0.07-0.041-0.106c-0.028-0.062-0.062-0.121-0.098-0.18
	c-0.017-0.027-0.031-0.056-0.05-0.082c-0.004-0.007-0.007-0.014-0.011-0.02l-6.765-9.516c-0.001-0.002-0.003-0.003-0.004-0.004
	c-0.07-0.1-0.155-0.189-0.248-0.273c-0.032-0.029-0.068-0.051-0.103-0.077c-0.048-0.036-0.091-0.076-0.144-0.108
	c-0.018-0.011-0.037-0.017-0.057-0.026c-0.042-0.024-0.086-0.042-0.13-0.063c-0.071-0.031-0.145-0.059-0.22-0.081
	c-0.043-0.013-0.086-0.023-0.129-0.032c-0.085-0.018-0.17-0.027-0.255-0.031c-0.027-0.002-0.054-0.01-0.082-0.01h-29.48
	c-0.026,0-0.05,0.008-0.075,0.009c-0.089,0.004-0.177,0.014-0.264,0.032c-0.043,0.009-0.083,0.02-0.125,0.031
	c-0.076,0.021-0.15,0.051-0.223,0.084c-0.044,0.02-0.087,0.037-0.129,0.062c-0.02,0.01-0.039,0.016-0.057,0.026
	c-0.053,0.032-0.096,0.072-0.144,0.108c-0.034,0.026-0.07,0.048-0.103,0.077c-0.094,0.084-0.178,0.174-0.248,0.273
	c-0.001,0.001-0.003,0.002-0.004,0.004l-6.764,9.516c-0.005,0.006-0.008,0.013-0.012,0.02c-0.019,0.026-0.033,0.055-0.05,0.082
	c-0.035,0.059-0.069,0.118-0.098,0.18c-0.016,0.036-0.027,0.07-0.041,0.106c-0.023,0.062-0.043,0.124-0.059,0.188
	c-0.008,0.035-0.017,0.071-0.023,0.107c-0.013,0.077-0.02,0.154-0.022,0.232c-0.001,0.021-0.006,0.039-0.006,0.058
	c0,0.007,0.001,0.011,0.001,0.018c0.001,0.102,0.011,0.202,0.031,0.303c0.005,0.029,0.016,0.059,0.023,0.088
	c0.016,0.067,0.036,0.135,0.062,0.201c0.015,0.036,0.03,0.071,0.048,0.106c0.025,0.057,0.056,0.109,0.088,0.162
	c0.021,0.034,0.043,0.069,0.067,0.102c0.012,0.019,0.021,0.036,0.033,0.052l21.506,27.617c0.318,0.409,0.808,0.647,1.325,0.647
	s1.007-0.238,1.325-0.647l21.505-27.617c0.014-0.016,0.022-0.033,0.034-0.052c0.024-0.032,0.046-0.067,0.067-0.102
	C60.847,33.035,60.877,32.982,60.902,32.926z M23.032,25.747l2.908,4.784h-6.31L23.032,25.747z M44.518,33.89l-6.635,20.111
	L31.247,33.89H44.518z M32.812,30.531l5.07-5.386l5.07,5.386H32.812z M41.771,24.374h7.868l-3.088,5.079L41.771,24.374z
	 M29.215,29.453l-3.088-5.079h7.868L29.215,29.453z M27.712,33.89l5.806,17.598L19.814,33.89H27.712z M48.054,33.89h7.897
	L42.248,51.487L48.054,33.89z M49.825,30.531l2.908-4.784l3.401,4.784H49.825z"/>
</svg>
