<?xml version="1.0" encoding="utf-8"?>
<!-- Generator: Adobe Illustrator 13.0.0, SVG Export Plug-In  -->
<!DOCTYPE svg PUBLIC "-//W3C//DTD SVG 1.1 Tiny//EN" "http://www.w3.org/Graphics/SVG/1.1/DTD/svg11-tiny.dtd" [
	<!ENTITY ns_flows "http://ns.adobe.com/Flows/1.0/">
]>
<svg version="1.1" baseProfile="tiny"
	 xmlns="http://www.w3.org/2000/svg" xmlns:xlink="http://www.w3.org/1999/xlink" xmlns:a="http://ns.adobe.com/AdobeSVGViewerExtensions/3.0/"
	 x="0px" y="0px" width="470px" height="13px" viewBox="-0.77 -0.782 470 13" xml:space="preserve">
<defs>
</defs>
<path fill="#B7C1D0" d="M0,5.83c0,0,7.325-0.41,20.145-1.128c6.409-0.289,14.192-0.635,23.119-1.034
	c8.928-0.411,19-0.881,29.988-1.109c10.987-0.301,22.891-0.624,35.48-0.965c12.591-0.331,25.867-0.799,39.602-0.817
	c27.47-0.247,56.771-0.513,86.071-0.775c29.301,0.259,58.602,0.521,86.07,0.768c13.735,0.023,27.012,0.46,39.603,0.806
	c12.59,0.342,24.493,0.669,35.48,0.973c10.988,0.229,21.061,0.688,29.987,1.11c8.928,0.403,16.711,0.749,23.12,1.038
	c12.819,0.721,20.145,1.136,20.145,1.136s-7.325,0.414-20.145,1.136c-6.409,0.289-14.192,0.636-23.12,1.039
	c-8.927,0.421-18.999,0.881-29.987,1.109c-10.987,0.303-22.891,0.631-35.48,0.973c-12.591,0.346-25.867,0.783-39.603,0.806
	c-27.469,0.247-56.77,0.509-86.07,0.768c-29.301-0.262-58.602-0.528-86.071-0.774c-13.734-0.02-27.011-0.487-39.602-0.818
	c-12.59-0.342-24.493-0.664-35.48-0.965C62.264,8.874,52.191,8.403,43.264,7.993c-8.927-0.399-16.71-0.745-23.119-1.034
	C7.325,6.241,0,5.83,0,5.83z"/>
</svg>
