<?xml version="1.0" encoding="utf-8"?>
<!-- Generator: Adobe Illustrator 13.0.0, SVG Export Plug-In  -->
<!DOCTYPE svg PUBLIC "-//W3C//DTD SVG 1.1 Tiny//EN" "http://www.w3.org/Graphics/SVG/1.1/DTD/svg11-tiny.dtd" [
	<!ENTITY ns_flows "http://ns.adobe.com/Flows/1.0/">
]>
<svg version="1.1" baseProfile="tiny"
	 xmlns="http://www.w3.org/2000/svg" xmlns:xlink="http://www.w3.org/1999/xlink" xmlns:a="http://ns.adobe.com/AdobeSVGViewerExtensions/3.0/"
	 x="0px" y="0px" width="77px" height="77px" viewBox="-0.671 -0.584 77 77" xml:space="preserve">
<defs>
</defs>
<path fill="#C2CAD5" d="M75.766,56.052c0,10.887-8.826,19.714-19.715,19.714H19.715C8.826,75.766,0,66.938,0,56.052V19.714
	C0,8.827,8.826,0,19.715,0h36.336c10.889,0,19.715,8.827,19.715,19.714V56.052z"/>
<path fill="#FFFFFF" d="M26.352,27.547c0.477-0.406,0.534-1.12,0.129-1.598c-1.186-1.395-1.839-3.172-1.839-5.006
	c0-4.266,3.471-7.735,7.736-7.735c4.265,0,7.735,3.47,7.735,7.735c0,1.836-0.654,3.615-1.842,5.01
	c-0.405,0.477-0.349,1.191,0.128,1.596c0.213,0.182,0.474,0.271,0.733,0.271c0.32,0,0.639-0.136,0.862-0.399
	c1.535-1.805,2.381-4.104,2.381-6.478c0-5.514-4.485-10-9.998-10c-5.514,0-10,4.486-10,10c0,2.37,0.844,4.67,2.377,6.473
	C25.16,27.893,25.874,27.951,26.352,27.547L26.352,27.547z M26.352,27.547"/>
<path fill="#FFFFFF" d="M32.348,18.717c2.496,0,4.493,1.529,5.153,3.751c0.145-0.483,0.223-0.994,0.223-1.524
	c0-2.953-2.394-5.346-5.346-5.346c-2.953,0-5.347,2.393-5.347,5.346c0,0.495,0.069,0.974,0.194,1.429
	C27.916,20.203,29.89,18.717,32.348,18.717L32.348,18.717z M32.348,18.717"/>
<path fill="#FFFFFF" d="M53.86,42.99c-0.71-4.236-3.697-4.912-5.1-4.992c-0.442-0.025-0.853-0.249-1.095-0.619
	c-1.017-1.553-2.378-1.963-3.536-1.963c-0.831,0-1.557,0.213-1.971,0.365c-0.053,0.02-0.105,0.027-0.158,0.027
	c-0.164,0-0.321-0.088-0.408-0.237c-1.033-1.771-2.5-2.229-3.739-2.229c-0.723,0-1.366,0.155-1.802,0.296
	c-0.046,0.015-0.145,0.021-0.189,0.021c-0.236,0-0.497-0.195-0.497-0.448v-9.108c0-2.082-1.552-3.122-3.113-3.122
	s-3.112,1.04-3.112,3.122v16.021c0,0.941-0.72,1.523-1.494,1.523c-0.471,0-0.925-0.214-1.236-0.693l-1.498-2.317
	c-0.662-1.092-1.618-1.545-2.57-1.545c-2.153,0-4.259,2.312-2.763,4.781l11.79,22.582c0.077,0.148,0.23,0.26,0.397,0.26h16.558
	c0.235,0,0.432-0.203,0.445-0.439l0.415-6.757c0.005-0.078,0.03-0.158,0.073-0.224C53.366,51.07,54.543,47.059,53.86,42.99
	L53.86,42.99z M53.86,42.99"/>
</svg>
