<?xml version="1.0" encoding="utf-8"?>
<!-- Generator: Adobe Illustrator 13.0.0, SVG Export Plug-In  -->
<!DOCTYPE svg PUBLIC "-//W3C//DTD SVG 1.1 Tiny//EN" "http://www.w3.org/Graphics/SVG/1.1/DTD/svg11-tiny.dtd" [
	<!ENTITY ns_flows "http://ns.adobe.com/Flows/1.0/">
]>
<svg version="1.1" baseProfile="tiny"
	 xmlns="http://www.w3.org/2000/svg" xmlns:xlink="http://www.w3.org/1999/xlink" xmlns:a="http://ns.adobe.com/AdobeSVGViewerExtensions/3.0/"
	 x="0px" y="0px" width="76px" height="77px" viewBox="-0.004 -0.584 76 77" xml:space="preserve">
<defs>
</defs>
<path fill="#C2CAD5" d="M75.766,56.052c0,10.887-8.826,19.714-19.715,19.714H19.715C8.826,75.766,0,66.938,0,56.052V19.714
	C0,8.827,8.826,0,19.715,0h36.336c10.889,0,19.715,8.827,19.715,19.714V56.052z"/>
<path fill="#FFFFFF" d="M51.815,61.781v-4.06c0-0.854-0.378-1.671-1.044-2.219c-3.671-3.015-7.631-5.013-8.438-5.411
	c-0.089-0.041-0.148-0.141-0.148-0.238v-5.711c0.717-0.478,1.193-1.294,1.193-2.219v-5.93c0-2.943-2.388-5.342-5.342-5.342h-1.273
	c-2.945,0-5.343,2.387-5.343,5.342v5.92c0,0.926,0.478,1.74,1.194,2.219v5.71c0,0.1-0.06,0.189-0.149,0.239
	c-0.806,0.397-4.766,2.397-8.437,5.412c-0.666,0.547-1.045,1.362-1.045,2.219v4.059"/>
<path fill="#FFFFFF" d="M37.351,26.522c0.497,0,0.905-0.407,0.905-0.905v-8.556l1.672,1.672c0.178,0.179,0.408,0.269,0.637,0.269
	s0.457-0.09,0.636-0.269c0.349-0.349,0.349-0.926,0-1.272l-3.213-3.214c-0.349-0.349-0.925-0.349-1.273,0L33.5,17.461
	c-0.348,0.347-0.348,0.924,0,1.272c0.349,0.349,0.926,0.349,1.273,0l1.672-1.672v8.556C36.445,26.125,36.854,26.522,37.351,26.522
	L37.351,26.522z M37.351,26.522"/>
<path fill="#FFFFFF" d="M19.959,39.983c0.349-0.349,0.349-0.925,0-1.272l-1.671-1.672h8.556c0.498,0,0.906-0.408,0.906-0.905
	c0-0.498-0.408-0.905-0.906-0.905h-8.556l1.671-1.672c0.349-0.348,0.349-0.925,0-1.273c-0.347-0.348-0.924-0.348-1.272,0
	l-3.214,3.214c-0.168,0.17-0.268,0.397-0.268,0.637c0,0.238,0.1,0.467,0.268,0.637l3.214,3.213c0.18,0.179,0.408,0.27,0.637,0.27
	C19.553,40.253,19.781,40.153,19.959,39.983L19.959,39.983z M19.959,39.983"/>
<path fill="#FFFFFF" d="M47.857,37.029h8.555L54.741,38.7c-0.348,0.349-0.348,0.925,0,1.273c0.179,0.18,0.407,0.269,0.637,0.269
	c0.229,0,0.457-0.089,0.637-0.269l3.214-3.212c0.168-0.17,0.268-0.399,0.268-0.639c0-0.238-0.1-0.467-0.268-0.637l-3.214-3.213
	c-0.349-0.348-0.926-0.348-1.273,0c-0.348,0.349-0.348,0.925,0,1.274l1.671,1.67h-8.555c-0.498,0-0.906,0.408-0.906,0.905
	C46.951,36.621,47.359,37.029,47.857,37.029L47.857,37.029z M47.857,37.029"/>
<path fill="#FFFFFF" d="M21.433,21.111v4.547c0,0.497,0.407,0.904,0.905,0.904c0.497,0,0.905-0.407,0.905-0.904V23.29l6.049,6.048
	c0.179,0.179,0.408,0.27,0.637,0.27s0.457-0.091,0.637-0.27c0.349-0.348,0.349-0.925,0-1.273l-6.05-6.049h2.369
	c0.498,0,0.904-0.406,0.904-0.904s-0.406-0.905-0.904-0.905h-4.557C21.831,20.206,21.433,20.613,21.433,21.111L21.433,21.111z
	 M21.433,21.111"/>
<path fill="#FFFFFF" d="M44.782,29.598c0.229,0,0.458-0.09,0.637-0.27l6.05-6.049v2.368c0,0.498,0.406,0.905,0.904,0.905
	c0.497,0,0.905-0.407,0.905-0.905v-4.536c0-0.498-0.408-0.905-0.905-0.905h-4.547c-0.497,0-0.905,0.407-0.905,0.905
	s0.408,0.904,0.905,0.904h2.367l-6.047,6.049c-0.349,0.349-0.349,0.926,0,1.273C44.314,29.517,44.544,29.598,44.782,29.598
	L44.782,29.598z M44.782,29.598"/>
</svg>
