<?xml version="1.0" encoding="utf-8"?>
<!-- Generator: Adobe Illustrator 13.0.0, SVG Export Plug-In  -->
<!DOCTYPE svg PUBLIC "-//W3C//DTD SVG 1.1 Tiny//EN" "http://www.w3.org/Graphics/SVG/1.1/DTD/svg11-tiny.dtd" [
	<!ENTITY ns_flows "http://ns.adobe.com/Flows/1.0/">
]>
<svg version="1.1" baseProfile="tiny"
	 xmlns="http://www.w3.org/2000/svg" xmlns:xlink="http://www.w3.org/1999/xlink" xmlns:a="http://ns.adobe.com/AdobeSVGViewerExtensions/3.0/"
	 x="0px" y="0px" width="77px" height="77px" viewBox="-0.848 -0.584 77 77" xml:space="preserve">
<defs>
</defs>
<path fill="#C2CAD5" d="M75.766,56.052c0,10.887-8.826,19.714-19.715,19.714H19.715C8.826,75.766,0,66.938,0,56.052V19.714
	C0,8.827,8.826,0,19.715,0h36.336c10.889,0,19.715,8.827,19.715,19.714V56.052z"/>
<path fill="#FFFFFF" d="M38.031,28.331c-5.246,0-9.508,4.253-9.508,9.507c0,5.256,4.262,9.506,9.508,9.506s9.506-4.25,9.506-9.506
	C47.537,32.593,43.285,28.331,38.031,28.331L38.031,28.331z M38.652,39.983"/>
<path fill="#FFFFFF" d="M59.134,36.167h-1.985c-0.8-9.265-8.182-16.646-17.447-17.446v-1.986c0-0.919-0.742-1.661-1.661-1.661
	c-0.92,0-1.661,0.742-1.661,1.661v1.986c-9.266,0.8-16.647,8.182-17.447,17.446h-1.986c-0.919,0-1.661,0.742-1.661,1.662
	s0.742,1.661,1.661,1.661h1.986c0.8,9.266,8.182,16.646,17.447,17.445v1.987c0,0.92,0.741,1.662,1.661,1.662
	c0.919,0,1.661-0.742,1.661-1.662v-1.987c9.266-0.799,16.647-8.18,17.447-17.445h1.985c0.921,0,1.662-0.741,1.662-1.661
	S60.055,36.167,59.134,36.167L59.134,36.167z M53.906,39.482c-0.77,7.491-6.73,13.452-14.223,14.224v-3.64h-3.315v3.64
	c-7.491-0.771-13.451-6.732-14.224-14.224h3.641v-3.315h-3.641c0.772-7.491,6.732-13.454,14.224-14.224v3.64h3.315v-3.64
	c7.492,0.77,13.453,6.732,14.223,14.224h-3.64v3.315H53.906z M53.906,39.482"/>
</svg>
